<svg xmlns="http://www.w3.org/2000/svg" id="svg2" width="2666.667" height="2666.667" version="1.1"
     viewBox="0 0 2666.667 2666.667" xml:space="preserve"><metadata id="metadata8"/>
    <g id="g10" transform="matrix(1.3333333,0,0,-1.3333333,0,2666.6667)"><g id="g12" transform="scale(0.1)"><g id="g14" transform="scale(1.22699)"><path id="path16" d="M 16300,0 H 0 V 16300 H 16300 V 0" style="fill:#fff;fill-opacity:1;fill-rule:nonzero;stroke:none"/></g><g
            id="g18" transform="scale(1.19088)"><path id="path20" d="m 3103.95,3843.95 c 0,0 -2559.734,305.66 -2048.61,2425.09 511.13,2119.35 2882.65,2162.02 3780.19,3601.44 897.55,1439.42 2130.07,3635.32 5531.27,2971.52 4043.5,-789.1 2316.4,-3847.83 3076.7,-4720.72 760.3,-872.97 1928,-820.57 2251.7,-1986.17 C 16300,3957.23 14177,3884.43 13597.2,3843.95 H 3103.95" style="fill:#d7e9f4;fill-opacity:1;fill-rule:nonzero;stroke:none"/></g><path
            id="path22"
            d="m 8231.41,6922.4 c -234.28,310 -1752.94,-1162.6 -1607.22,-833.2 145.72,329.4 633.27,1833.6 157.23,1986 -476.04,152.4 -575.72,-742.8 -1022.86,-411.8 -447.13,331.1 131.64,1822.3 -212.86,1879.3 -344.5,57.1 -220,-1290.3 -771.59,-917.7 -479.6,324 -917.76,1057.7 -1172.09,954.3 C 3755,9351 4194.11,8685.8 4670.94,7872 5214.95,6943.5 5920.66,5626.4 6193.27,4623.9 c 2.18,-8 -2.54,-16.3 -10.54,-18.4 -1.31,-0.4 -2.64,-0.6 -3.94,-0.6 -6.6,0 -12.65,4.4 -14.46,11.1 -271.74,999.3 -976.12,2313.8 -1519.17,3240.6 -478.13,816.1 -918.33,1482.6 -1069.65,1708.3 -27.58,-18.8 -52.72,-49 -75.14,-92.8 -225.32,-440.3 915.33,-1719.7 593.3,-1925.2 -322.02,-205.5 -1367.97,-324.5 -1037.97,-681.1 330,-356.5 1976.85,-684.4 1896.93,-1082.3 -79.92,-397.9 -977.88,234.9 -1266.93,-93.8 -289.05,-328.7 1650,-1093.4 1650,-1093.4 0,0 370,-63.9 984.53,-18.6 614.55,45.3 2145.47,2034.7 1911.18,2344.7"
            style="fill:#fff;fill-opacity:1;fill-rule:nonzero;stroke:none"/><path id="path24"
                                                                                  d="m 12975.7,6019.8 c -285.2,112 -801.7,-787 -983.1,-1123.8 35.9,184 88.9,396.7 149.6,615.7 105.5,104.7 1452.7,1450.7 1116.3,1582.8 -283.7,111.4 -796.2,-777.6 -980.2,-1118.4 179.5,584.5 364.9,1100.5 368.2,1109.6 l -28.2,10.1 c -3.5,-9.5 -207.5,-577.2 -395,-1197.4 35,163.1 102.8,696.4 -294.8,1374.3 -440.7,751.5 102.5,-1366.9 194.4,-1718.7 -75.5,-270 -140.4,-532.5 -177,-746 -12,-23.1 -18.5,-36.1 -18.5,-36.1 0,0 198.3,607.7 -281.7,1426.1 -480,818.5 0,-1525.6 0,-1525.6 l 300.8,36.5 14.1,-1.9 c 0.1,1.2 0.3,2.5 0.5,3.7 l 242.9,29.5 c 0,0 1121.7,1142.2 771.7,1279.6"
                                                                                  style="fill:#fff;fill-opacity:1;fill-rule:nonzero;stroke:none"/><path
            id="path26"
            d="m 15361.9,11602.4 c -179.5,132.4 -527.8,-264.3 -781.5,-609 65.8,197.2 129.3,409.6 182,594.2 214.4,365.3 762.4,1364.1 421.4,1485.1 -333.1,118.1 -472,-1276.1 -497.2,-1566.1 -62.4,-213.8 -136.1,-452.8 -209.1,-657 -4.2,-6 -8.4,-12.1 -12.5,-18 97.7,221.2 171.3,572.8 36.6,1062 -252,914.8 -384.9,-1658.9 -384.9,-1658.9 0,0 1547.7,1144.4 1245.2,1367.7"
            style="fill:#fff;fill-opacity:1;fill-rule:nonzero;stroke:none"/><g id="g28" transform="scale(1.10602)"><path id="path30" d="M 16300,4141.68 H 12535.2 V 9726.6 H 16300 V 4141.68" style="fill:#fff;fill-opacity:1;fill-rule:nonzero;stroke:none"/></g><g
            id="g32" transform="scale(1.10694)"><path id="path34" d="m 12538.2,4151.79 h 3734.7 v 5553.17 h -3734.7 z m 3761.8,-27.1 H 12511.1 V 9732.07 H 16300 V 4124.69" style="fill:#0e2549;fill-opacity:1;fill-rule:nonzero;stroke:none"/></g><path
            id="path36"
            d="m 15357.9,9703.1 c 0,-207 -167.7,-374.8 -374.7,-374.8 -207,0 -374.7,167.8 -374.7,374.8 0,206.9 167.7,374.7 374.7,374.7 207,0 374.7,-167.8 374.7,-374.7"
            style="fill:#a1c5e2;fill-opacity:1;fill-rule:nonzero;stroke:none"/><path id="path38"
                                                                                     d="m 14924.2,9615.1 -299.9,321.8 c -5.7,6.1 -5.3,15.6 0.7,21.2 6.1,5.6 15.6,5.3 21.2,-0.7 l 280.7,-301.2 564.4,465.3 c 6.4,5.2 15.8,4.3 21.1,-2.1 5.3,-6.4 4.3,-15.8 -2,-21.1 l -586.2,-483.2"
                                                                                     style="fill:#0e2549;fill-opacity:1;fill-rule:nonzero;stroke:none"/><path
            id="path40"
            d="m 14983.2,8138.5 c -198.4,0 -359.7,-161.4 -359.7,-359.7 0,-198.4 161.3,-359.8 359.7,-359.8 198.4,0 359.7,161.4 359.7,359.8 0,198.3 -161.3,359.7 -359.7,359.7 z m 0,-749.5 c -214.9,0 -389.7,174.9 -389.7,389.8 0,214.9 174.8,389.7 389.7,389.7 214.9,0 389.7,-174.8 389.7,-389.7 0,-214.9 -174.8,-389.8 -389.7,-389.8"
            style="fill:#0e2549;fill-opacity:1;fill-rule:nonzero;stroke:none"/><path id="path42"
                                                                                     d="m 14983.2,6214.2 c -198.4,0 -359.7,-161.3 -359.7,-359.7 0,-198.4 161.3,-359.8 359.7,-359.8 198.4,0 359.7,161.4 359.7,359.8 0,198.4 -161.3,359.7 -359.7,359.7 z m 0,-749.5 c -214.9,0 -389.7,174.9 -389.7,389.8 0,214.9 174.8,389.7 389.7,389.7 214.9,0 389.7,-174.8 389.7,-389.7 0,-214.9 -174.8,-389.8 -389.7,-389.8"
                                                                                     style="fill:#0e2549;fill-opacity:1;fill-rule:nonzero;stroke:none"/><g
            id="g44" transform="scale(1.08552)"><path id="path46" d="m 16286.2,9191.35 h -1851.6 c -7.6,0 -13.8,6.17 -13.8,13.81 0,7.59 6.2,13.77 13.8,13.77 h 1851.6 c 7.6,0 13.8,-6.18 13.8,-13.77 0,-7.64 -6.2,-13.81 -13.8,-13.81" style="fill:#0e2549;fill-opacity:1;fill-rule:nonzero;stroke:none"/></g><path
            id="path48"
            d="m 16271.1,9561 h -569.6 c -8.3,0 -15,6.7 -15,15 0,8.3 6.7,15 15,15 h 569.6 c 8.3,0 15,-6.7 15,-15 0,-8.3 -6.7,-15 -15,-15"
            style="fill:#0e2549;fill-opacity:1;fill-rule:nonzero;stroke:none"/><path id="path50"
                                                                                     d="m 2341.39,8560.6 -6.17,-2.9 -100.14,-351.1 c -37.06,55.1 -123.04,183.9 -178.79,274.8 l -4.68,7.6 -8.93,-0.5 c -18.79,-1 -35.79,-1.5 -51.98,-1.5 -328.07,0 -594.97,171.1 -594.97,381.4 0,210.3 266.9,381.4 594.97,381.4 162.51,0 309.96,-42 417.44,-110 l -498.58,-411 -280.7,301.2 c -5.65,6 -15.15,6.3 -21.2,0.7 -6.06,-5.7 -6.4,-15.1 -0.75,-21.2 l 299.96,-321.8 527.23,434.7 c 94.17,-67.5 151.57,-156.5 151.57,-254 0,-120.8 -91.32,-235.8 -244.28,-307.8 z m 116.04,581 35.55,29.3 c 6.4,5.3 7.31,14.7 2.03,21.1 -5.26,6.4 -14.72,7.3 -21.11,2.1 l -41.95,-34.6 c -113.13,74.3 -269.18,120.3 -441.25,120.3 -344.61,0 -624.97,-184.5 -624.97,-411.4 0,-226.9 280.36,-411.4 624.97,-411.4 14.13,0 28.83,0.3 44.7,1.1 73.18,-118.5 191.64,-293.2 192.86,-295 l 18.03,-26.6 114.05,399.9 c 160.03,77.3 255.33,201 255.33,332 0,104.8 -59.91,200.5 -158.24,273.2"
                                                                                     style="fill:#0e2549;fill-opacity:1;fill-rule:nonzero;stroke:none"/><path
            id="path52" d="M 10796.6,5312.6 H 9123.18 V 6865.8 H 10796.6 V 5312.6"
            style="fill:#a1c5e2;fill-opacity:1;fill-rule:nonzero;stroke:none"/><path id="path54"
                                                                                     d="M 14121.7,6596.6 H 5692.21 c -149.88,0 -271.39,121.5 -271.39,271.4 v 5910.9 c 0,149.9 121.51,271.4 271.39,271.4 h 8429.49 c 149.9,0 271.4,-121.5 271.4,-271.4 V 6868 c 0,-149.9 -121.5,-271.4 -271.4,-271.4"
                                                                                     style="fill:#d2ebfc;fill-opacity:1;fill-rule:nonzero;stroke:none"/><path
            id="path56"
            d="m 5692.22,13035.3 c -141.38,0 -256.39,-115 -256.39,-256.4 V 6868 c 0,-141.4 115.01,-256.4 256.39,-256.4 h 8429.48 c 141.4,0 256.4,115 256.4,256.4 v 5910.9 c 0,141.4 -115,256.4 -256.4,256.4 z M 14121.7,6581.6 H 5692.22 c -157.92,0 -286.39,128.5 -286.39,286.4 v 5910.9 c 0,157.9 128.47,286.4 286.39,286.4 h 8429.48 c 158,0 286.4,-128.5 286.4,-286.4 V 6868 c 0,-157.9 -128.4,-286.4 -286.4,-286.4"
            style="fill:#0e2549;fill-opacity:1;fill-rule:nonzero;stroke:none"/><path id="path58"
                                                                                     d="M 13928.3,7432.9 H 5961.62 V 12609 H 13928.3 V 7432.9"
                                                                                     style="fill:#fff;fill-opacity:1;fill-rule:nonzero;stroke:none"/><path
            id="path60"
            d="M 5976.62,7447.8 H 13913.3 V 12594 H 5976.62 Z m 7966.68,-30 H 5946.62 V 12624 H 13943.3 V 7417.8"
            style="fill:#0e2549;fill-opacity:1;fill-rule:nonzero;stroke:none"/><path id="path62"
                                                                                     d="M 11688.3,4577.7 H 8231.41 v 754.2 h 3456.89 v -754.2"
                                                                                     style="fill:#2e6b99;fill-opacity:1;fill-rule:nonzero;stroke:none"/><path
            id="path64"
            d="m 12750.7,12237 c 0,-53.6 -43.5,-97.1 -97.1,-97.1 -53.6,0 -97.1,43.5 -97.1,97.1 0,53.6 43.5,97.1 97.1,97.1 53.6,0 97.1,-43.5 97.1,-97.1"
            style="fill:#a1c5e2;fill-opacity:1;fill-rule:nonzero;stroke:none"/><path id="path66"
                                                                                     d="m 13101.5,12238.6 c 0,-53.6 -43.5,-97.1 -97.1,-97.1 -53.6,0 -97.1,43.5 -97.1,97.1 0,53.6 43.5,97.1 97.1,97.1 53.6,0 97.1,-43.5 97.1,-97.1"
                                                                                     style="fill:#a1c5e2;fill-opacity:1;fill-rule:nonzero;stroke:none"/><path
            id="path68"
            d="m 13452.2,12238.6 c 0,-53.6 -43.4,-97.1 -97,-97.1 -53.7,0 -97.1,43.5 -97.1,97.1 0,53.6 43.4,97.1 97.1,97.1 53.6,0 97,-43.5 97,-97.1"
            style="fill:#a1c5e2;fill-opacity:1;fill-rule:nonzero;stroke:none"/><path id="path70"
                                                                                     d="M 11705.6,7448.2 H 8091.34 V 9250 H 11705.6 V 7448.2"
                                                                                     style="fill:#e2474b;fill-opacity:1;fill-rule:nonzero;stroke:none"/><path
            id="path72" d="M 11590.4,10335.7 H 8238 l -398.09,-828.2 v -523.3 h 4022.79 v 523.3 l -272.3,828.2"
            style="fill:#a1c5e2;fill-opacity:1;fill-rule:nonzero;stroke:none"/><path id="path74"
                                                                                     d="m 11014,10122.7 c 0,-33.8 -13.9,-64.6 -36.2,-86.9 -22.3,-22.4 -53.1,-36.2 -86.9,-36.2 H 8837.57 c -67.78,0 -123.1,55.3 -123.1,123.1 0,33.8 13.83,64.6 36.15,87 22.31,22.3 53,36.1 86.95,36.1 h 2053.33 c 67.7,0 123.1,-55.4 123.1,-123.1"
                                                                                     style="fill:#0e2549;fill-opacity:1;fill-rule:nonzero;stroke:none"/><path
            id="path76"
            d="m 10653.7,10604.6 -72.4,-346.2 -50.5,-241.9 H 9241.99 l 50.59,241.9 124.56,595.8 1236.56,-249.6"
            style="fill:#fff;fill-opacity:1;fill-rule:nonzero;stroke:none"/><path id="path78"
                                                                                  d="m 9260.45,10031.5 h 1258.15 l 117.4,561.4 -1207.22,243.7 z m 1282.45,-30 H 9223.53 l 181.98,870.4 1265.99,-255.5 -128.6,-614.9"
                                                                                  style="fill:#0e2549;fill-opacity:1;fill-rule:nonzero;stroke:none"/><path
            id="path80"
            d="m 9749.27,10414.4 c -15.72,-76.5 -90.49,-125.8 -167,-110.1 -76.51,15.7 -125.79,90.5 -110.07,167 15.72,76.5 90.49,125.8 167,110.1 76.51,-15.8 125.79,-90.5 110.07,-167"
            style="fill:#a1c5e2;fill-opacity:1;fill-rule:nonzero;stroke:none"/><path id="path82"
                                                                                     d="m 9383.84,10001.5 c -2.9,0 -5.84,0.9 -8.42,2.6 -6.85,4.7 -8.63,14 -3.97,20.8 35.6,52.4 98.73,78 160.83,65.3 40,-8.2 74.77,-31.3 97.9,-65.2 4.66,-6.9 2.9,-16.2 -3.94,-20.9 -6.85,-4.6 -16.18,-2.9 -20.85,4 -18.7,27.4 -46.8,46.1 -79.13,52.7 -50.22,10.3 -101.23,-10.4 -130,-52.7 -2.9,-4.3 -7.62,-6.6 -12.42,-6.6"
                                                                                     style="fill:#0e2549;fill-opacity:1;fill-rule:nonzero;stroke:none"/><path
            id="path84"
            d="m 10425.5,10359.4 c -1,0 -2,0 -3,0.3 l -538.74,110.7 c -8.11,1.6 -13.34,9.5 -11.67,17.7 1.66,8.1 9.64,13.3 17.71,11.6 l 538.7,-110.6 c 8.2,-1.7 13.4,-9.7 11.7,-17.8 -1.4,-7.1 -7.7,-11.9 -14.7,-11.9"
            style="fill:#0e2549;fill-opacity:1;fill-rule:nonzero;stroke:none"/><path id="path86"
                                                                                     d="m 10107.1,10241.2 c -1,0 -2,0.1 -3,0.3 l -256.53,52.7 c -8.12,1.7 -13.35,9.6 -11.68,17.7 1.67,8.1 9.63,13.3 17.71,11.7 l 256.5,-52.7 c 8.2,-1.7 13.4,-9.6 11.7,-17.7 -1.4,-7.1 -7.7,-12 -14.7,-12"
                                                                                     style="fill:#0e2549;fill-opacity:1;fill-rule:nonzero;stroke:none"/><path
            id="path88"
            d="m 9594.19,10401.5 -103.3,171.3 c -4.28,7.1 -2,16.3 5.1,20.6 7.09,4.3 16.3,2 20.59,-5.1 l 88.17,-146.2 308.4,176.3 c 7.2,4.1 16.36,1.6 20.47,-5.5 4.11,-7.2 1.61,-16.4 -5.57,-20.5 l -333.86,-190.9"
            style="fill:#0e2549;fill-opacity:1;fill-rule:nonzero;stroke:none"/><path id="path90"
                                                                                     d="M 10454.5,7994.9 H 9204.67 c -155.89,0 -283.44,127.5 -283.44,283.4 v 93.1 c 0,155.9 127.55,283.5 283.44,283.5 h 1249.83 c 155.9,0 283.4,-127.6 283.4,-283.5 v -93.1 c 0,-155.9 -127.5,-283.4 -283.4,-283.4"
                                                                                     style="fill:#fff;fill-opacity:1;fill-rule:nonzero;stroke:none"/><path
            id="path92"
            d="m 9204.67,8639.9 c -148.02,0 -268.44,-120.5 -268.44,-268.5 v -93.1 c 0,-148 120.42,-268.4 268.44,-268.4 h 1249.83 c 148,0 268.4,120.4 268.4,268.4 v 93.1 c 0,148 -120.4,268.5 -268.4,268.5 z m 1249.83,-660 H 9204.67 c -164.56,0 -298.44,133.8 -298.44,298.4 v 93.1 c 0,164.6 133.88,298.5 298.44,298.5 h 1249.83 c 164.5,0 298.4,-133.9 298.4,-298.5 v -93.1 c 0,-164.6 -133.9,-298.4 -298.4,-298.4"
            style="fill:#0e2549;fill-opacity:1;fill-rule:nonzero;stroke:none"/><path id="path94"
                                                                                     d="m 9311.56,8160.1 -141.3,320.1 h 44.34 l 75.18,-173.4 c 27.68,-64 38.63,-92.7 44.72,-110.3 h 0.9 c 4.95,15.1 20.91,52.2 41.09,101 l 80.26,182.7 H 9500 l -143.55,-320.1 h -44.89"
                                                                                     style="fill:#0e2549;fill-opacity:1;fill-rule:nonzero;stroke:none"/><path
            id="path96"
            d="m 9565.85,8322.6 c 0,-70.1 43.68,-134.6 125.39,-134.6 80.29,0 123.39,60.2 123.39,132.2 0,67.7 -43.85,132.2 -126.2,132.2 -76.44,0 -122.58,-60.2 -122.58,-129.8 z m 291.7,-1.5 c 0,-90.7 -61.47,-167.7 -167.49,-167.7 -102.28,0 -167.14,74 -167.14,168 0,88.9 66.17,165.6 168.1,165.6 100.84,0 166.53,-76.8 166.53,-165.9"
            style="fill:#0e2549;fill-opacity:1;fill-rule:nonzero;stroke:none"/><path id="path98"
                                                                                     d="m 10007.1,8445.3 h -123.45 v 34.9 h 287.55 v -34.9 h -123.3 v -285.2 h -40.8 v 285.2"
                                                                                     style="fill:#0e2549;fill-opacity:1;fill-rule:nonzero;stroke:none"/><path
            id="path100"
            d="m 10459.4,8311.2 h -194 v -116.4 h 213.8 l -5.7,-34.7 H 10225 v 320.1 h 244.5 v -34.7 h -204.1 v -99.6 h 194 v -34.7"
            style="fill:#0e2549;fill-opacity:1;fill-rule:nonzero;stroke:none"/><path id="path102"
                                                                                     d="m 9944.95,7186.3 c -99.8,0 -180.99,-81.2 -180.99,-181 0,-99.8 81.19,-181 180.99,-181 99.75,0 180.95,81.2 180.95,181 0,99.8 -81.2,181 -180.95,181 z m 0,-392 c -116.35,0 -210.99,94.7 -210.99,211 0,116.4 94.64,211 210.99,211 116.35,0 210.95,-94.6 210.95,-211 0,-116.3 -94.6,-211 -210.95,-211"
                                                                                     style="fill:#0e2549;fill-opacity:1;fill-rule:nonzero;stroke:none"/><path
            id="path104"
            d="m 13791.5,7113.3 c -53.9,0 -97.7,-43.8 -97.7,-97.7 0,-53.9 43.8,-97.7 97.7,-97.7 53.8,0 97.7,43.8 97.7,97.7 0,53.9 -43.9,97.7 -97.7,97.7 z m 0,-225.4 c -70.5,0 -127.7,57.3 -127.7,127.7 0,70.4 57.2,127.7 127.7,127.7 70.4,0 127.7,-57.3 127.7,-127.7 0,-70.4 -57.3,-127.7 -127.7,-127.7"
            style="fill:#0e2549;fill-opacity:1;fill-rule:nonzero;stroke:none"/><g id="g106" transform="scale(1.15482)"><path id="path108" d="M 16287,3953.68 H 1088.3 c -7.17,0 -12.99,5.8 -12.99,12.99 0,7.19 5.82,12.99 12.99,12.99 H 16287 c 7.2,0 13,-5.8 13,-12.99 0,-7.19 -5.8,-12.99 -13,-12.99" style="fill:#0e2549;fill-opacity:1;fill-rule:nonzero;stroke:none"/></g><path
            id="path110" d="M 14123.5,4580.8 H 10917.9 V 5153 c 0,1.6 1.2,2.9 2.8,2.9 h 3202.8 v -575.1"
            style="fill:#d2ebfc;fill-opacity:1;fill-rule:nonzero;stroke:none"/><path id="path112"
                                                                                     d="m 10384.4,4834.3 531.6,-252.6 c 1,-0.4 2.1,0.3 2.1,1.3 v 570.6 c 0,1.1 -1.1,1.8 -2.1,1.3 l -531.6,-252.6 c -28.7,-13.6 -28.7,-54.4 0,-68"
                                                                                     style="fill:#fff;fill-opacity:1;fill-rule:nonzero;stroke:none"/><path
            id="path114"
            d="m 10933.1,4756.9 h 2819.3 v -161.1 h -2819.3 z m 0,191.2 h 2819.3 v -161.2 h -2819.3 z m 0,192.8 h 2819.3 v -162.8 h -2819.3 z m -30.2,-536.3 -291.8,138.6 c -4.2,27.1 -4,215.9 -4,248.4 l 295.8,140.4 z m 17.8,566.3 c -2,0 -9.4,-1.6 -11.1,-2.5 L 10378,4915.9 c -18.6,-8.8 -30.1,-27.1 -30.1,-47.6 0,-20.5 11.5,-38.7 30.1,-47.5 l 524.9,-255 h 3235.6 v 605.1 h -3217.8"
            style="fill:#0e2549;fill-opacity:1;fill-rule:nonzero;stroke:none"/><path id="path116"
                                                                                     d="m 7866.3,8618.6 h -803.36 l 138.96,498.3 h 803.35 z m -147.32,-528.4 h -803.35 l 138.95,498.4 h 803.35 z m -147.31,-528.3 h -803.35 l 138.95,498.3 h 803.35 z M 7424.35,7033.5 H 6621 l 138.95,498.4 h 803.36 z m -147.31,-528.3 h -803.35 l 138.95,498.3 h 803.35 z m -147.32,-528.4 h -803.35 l 138.95,498.4 h 803.35 z m -147.31,-528.3 h -803.36 l 138.96,498.3 h 803.35 z m -147.32,-528.4 h -803.35 l 138.95,498.4 h 803.35 z M 9556.83,4600.3 8151.38,9641 8013.61,9146.9 h -803.35 l 121.07,434.3 c 2.23,7.9 -2.44,16.2 -10.42,18.4 -7.99,2.2 -16.25,-2.4 -18.47,-10.4 l -123.32,-442.3 h -140.91 c -8.28,0 -15,-6.7 -15,-15 0,-8.2 6.72,-15 15,-15 h 132.54 L 7031.8,8618.6 h -133.26 c -8.29,0 -15,-6.7 -15,-15 0,-8.3 6.71,-15 15,-15 h 124.9 l -138.95,-498.4 h -103.07 c -8.29,0 -15,-6.7 -15,-15 0,-8.3 6.71,-15 15,-15 h 94.7 l -138.95,-498.3 h -112.98 c -8.28,0 -15,-6.7 -15,-15 0,-8.3 6.72,-15 15,-15 h 104.62 l -138.96,-498.4 h -87.1 c -8.29,0 -15,-6.7 -15,-15 0,-8.3 6.71,-15 15,-15 h 78.74 l -138.95,-498.3 h -96.93 c -8.29,0 -15,-6.8 -15,-15 0,-8.3 6.71,-15 15,-15 h 88.56 l -138.95,-498.4 h -101.51 c -8.29,0 -15,-6.7 -15,-15 0,-8.3 6.71,-15 15,-15 h 93.15 L 6147.91,5448.5 H 6041.8 c -8.28,0 -15,-6.8 -15,-15 0,-8.3 6.72,-15 15,-15 h 97.75 L 6000.6,4920.1 h -121.18 c -8.28,0 -15,-6.7 -15,-15 0,-8.3 6.72,-15 15,-15 h 112.81 l -80.79,-289.8 c -2.23,-8 2.44,-16.2 10.42,-18.5 1.34,-0.3 2.7,-0.5 4.03,-0.5 6.57,0 12.59,4.3 14.44,11 l 83.04,297.8 h 803.36 l -80.8,-289.8 c -2.22,-8 2.44,-16.2 10.42,-18.5 8,-2.1 16.25,2.5 18.48,10.5 l 83.04,297.8 h 92.48 c 8.29,0 15,6.7 15,15 0,8.3 -6.71,15 -15,15 h -84.11 l 138.95,498.4 h 107.54 c 8.29,0 15,6.7 15,15 0,8.2 -6.71,15 -15,15 h -99.18 l 138.95,498.3 h 112.13 c 8.29,0 15,6.7 15,15 0,8.3 -6.71,15 -15,15 h -103.76 l 138.95,498.4 h 116.72 c 8.28,0 15,6.7 15,15 0,8.2 -6.72,15 -15,15 h -108.36 l 138.95,498.3 h 126.55 c 8.28,0 15,6.7 15,15 0,8.3 -6.72,15 -15,15 H 7455.5 l 138.95,498.4 h 100.67 c 8.29,0 15,6.7 15,15 0,8.3 -6.71,15 -15,15 h -92.31 l 138.95,498.3 h 110.58 c 8.29,0 15,6.7 15,15 0,8.3 -6.71,15 -15,15 h -102.21 l 138.95,498.4 h 80.38 c 8.28,0 15,6.7 15,15 0,8.3 -6.72,15 -15,15 h -72.02 l 138.96,498.3 h 72.74 c 8.29,0 15,6.8 15,15 0,8.3 -6.71,15 -15,15 h -64.38 l 106.62,382.4 1376.55,-4937 c 1.86,-6.7 7.88,-11 14.44,-11 1.34,0 2.69,0.2 4.04,0.5 7.98,2.3 12.65,10.5 10.42,18.5"
                                                                                     style="fill:#0e2549;fill-opacity:1;fill-rule:nonzero;stroke:none"/><g
            id="g118" transform="scale(1.07135)"><path id="path120" d="m 15421.5,4646.57 -131.2,465.11 h 749.8 l 131.2,-465.11 z m -270.1,958.32 h 749.8 l 131.1,-465.2 h -749.8 z m -139,493.12 h 749.8 l 131.1,-465.11 h -749.9 z m -139,493.21 h 749.8 l 131.1,-465.21 h -749.9 z m -139,493.21 h 749.8 l 131.1,-465.21 h -749.8 z m 1563.5,-2784.06 -89.7,318.2 h 74 c 7.7,0 14,6.25 14,14 0,7.75 -6.3,14 -14,14 h -81.8 l -131.1,465.11 h 66.1 c 7.8,0 14,6.35 14,14.01 0,7.74 -6.2,14 -14,14 h -74 l -131.1,465.2 h 91.8 c 7.8,0 14,6.26 14,14 0,7.75 -6.2,14.01 -14,14.01 h -99.8 l -131,465.11 h 84.1 c 7.7,0 14,6.35 14,14 0,7.75 -6.3,14 -14,14 h -92 l -131.1,465.21 h 113.8 c 7.7,0 14,6.25 14,14 0,7.75 -6.3,14 -14,14 h -121.7 l -131.1,465.21 h 122.4 c 7.7,0 14,6.25 14,14 0,7.65 -6.3,14 -14,14 h -130.3 l -116.4,412.84 c -2.1,7.38 -9.7,11.77 -17.3,9.62 -7.3,-2.06 -11.7,-9.8 -9.6,-17.27 l 114.2,-405.19 h -749.8 l -116.4,412.84 -11.8,41.82 -1187.7,-3265.79 c -2.7,-7.18 1.1,-15.3 8.4,-17.92 7.2,-2.7 15.3,1.12 17.9,8.4 l 1158.1,3184.02 102.3,-363.37 h -61.2 c -7.7,0 -14,-6.35 -14,-14 0,-7.75 6.3,-14 14,-14 h 69.2 l 131.1,-465.21 h -70 c -7.7,0 -14,-6.25 -14,-14 0,-7.75 6.3,-14 14,-14 h 77.9 l 131.1,-465.21 h -99.7 c -7.6,0 -14,-6.25 -14,-14 0,-7.65 6.4,-14 14,-14 h 107.5 l 131.2,-465.11 h -91.9 c -7.7,0 -14,-6.26 -14,-14.01 0,-7.74 6.3,-14 14,-14 h 99.7 l 131.2,-465.2 h -117.5 c -7.8,0 -14,-6.26 -14,-14 0,-7.66 6.2,-14.01 14,-14.01 h 125.3 l 131.2,-465.11 h -109.8 c -7.8,0 -14,-6.25 -14,-14 0,-7.75 6.2,-14 14,-14 h 117.7 l 91.7,-325.85 c 1.8,-6.16 7.4,-10.18 13.6,-10.18 1.2,0 2.5,0.19 3.7,0.56 7.5,2.05 11.9,9.8 9.7,17.27 l -89.7,318.2 h 749.9 l 91.8,-325.85 c 1.7,-6.16 7.3,-10.18 13.4,-10.18 1.3,0 2.6,0.19 3.8,0.56 7.5,2.05 11.8,9.8 9.7,17.27" style="fill:#0e2549;fill-opacity:1;fill-rule:nonzero;stroke:none"/></g><path
            id="path122"
            d="m 7492.91,11489.5 c -1.63,-6.2 -3.25,-12.4 -4.92,-18.4 -70.83,-257.3 -192.29,-338.4 -255.79,-314.7 -20.65,7.7 -35.16,26.4 -39.88,53.7 -19.65,113.3 125.36,348.9 125.36,348.9 0,0 267.35,288.5 175.23,-69.5"
            style="fill:#e2474b;fill-opacity:1;fill-rule:nonzero;stroke:none"/><path id="path124"
                                                                                     d="m 7694.7,11371.3 c -4.8,-27.6 -20.64,-45.6 -42.87,-50.9 -59.95,-14.3 -166.37,63.9 -228.55,294.3 -1.03,3.9 -2.06,7.8 -3.08,11.8 -84.12,326.8 140.76,92.2 140.76,92.2 0,0 151.68,-244 133.74,-347.4"
                                                                                     style="fill:#e2474b;fill-opacity:1;fill-rule:nonzero;stroke:none"/><path
            id="path126"
            d="m 7651.83,11320.4 c -59.95,-14.3 -166.37,63.9 -228.55,294.3 l 42.56,11.4 c 0,0 2.83,-181.9 185.99,-305.7"
            style="fill:#0e2549;fill-opacity:1;fill-rule:nonzero;stroke:none"/><path id="path128"
                                                                                     d="m 7487.99,11471.1 c -70.83,-257.3 -192.29,-338.4 -255.79,-314.7 198.06,110.3 221.96,344.4 221.96,344.4 l 33.83,-29.7"
                                                                                     style="fill:#0e2549;fill-opacity:1;fill-rule:nonzero;stroke:none"/><path
            id="path130"
            d="m 7484.94,12128.1 -36.44,-108.7 -25.1,82.2 -197.82,699.1 230.21,165.5 253.24,-213.8 z m 669.77,798.2 c -22.46,50.8 -60.4,100.3 -120.64,139.5 -11.54,7.6 -175.15,129.8 -188.37,136.6 -102.76,52 -919.76,-105.4 -1058.78,-111.7 -10.79,-0.5 -66.53,-65.4 -91.25,-139 -14.86,-44.3 -20.57,-91.7 -0.92,-130.4 6.25,-12.3 29.88,-52.7 54.31,-93.9 l 541.03,-935 52.14,-90 -18.85,-56.3 -26.23,-78.2 201.3,-112.6 663.26,1225.9 c 22.25,44.6 36.14,147.4 -7,245.1"
            style="fill:#2e6b99;fill-opacity:1;fill-rule:nonzero;stroke:none"/><path id="path132"
                                                                                     d="m 7506.87,12923.1 -56.17,34.3 -55.34,-34.7 c -141.87,101.6 -427.44,139.4 -617.49,162.4 67.82,90.9 139.3,136.3 139.3,136.3 0,0 128.11,7.6 138.89,8 139.02,6.4 686.88,25 789.64,-27 13.22,-6.8 176.83,-129 188.37,-136.6 60.24,-39.2 -467.56,-72 -527.2,-142.7"
                                                                                     style="fill:#1e5272;fill-opacity:1;fill-rule:nonzero;stroke:none"/><path
            id="path134"
            d="m 7461.35,14827.9 c 0,0 -32.18,-242.8 -58.27,-266.7 -26.09,-23.8 -148.58,-67.4 -148.58,-67.4 l 340.01,-305.2 268.64,196.4 c 0,0 -113.29,74.6 -119.43,108.4 -8.51,46.7 34.34,280.5 34.34,280.5 l -316.71,54"
            style="fill:#fff;fill-opacity:1;fill-rule:nonzero;stroke:none"/><path id="path136"
                                                                                  d="m 7593.54,14169.3 -367.82,330.1 23.75,8.5 c 46.26,16.5 126.12,48.5 143.48,64.4 13.88,14.6 38.62,145.1 53.53,257.6 l 29.74,-4 c -7.71,-58.2 -35.07,-250.2 -63.02,-275.7 -21.01,-19.3 -91.99,-47.6 -130.13,-61.9 l 312.4,-280.4 241.61,176.7 c -37.3,25.8 -102.45,74.9 -108.12,106.1 -8.75,48.1 29.91,261.7 34.34,285.9 l 29.51,-5.4 c -17.02,-92.9 -40.22,-242.8 -34.34,-275.1 2.99,-16.5 60.81,-64.2 112.93,-98.5 l 18.05,-11.9 -295.91,-216.4"
                                                                                  style="fill:#0e2549;fill-opacity:1;fill-rule:nonzero;stroke:none"/><path
            id="path138"
            d="m 7606.3,15308.6 c 0,0 -154.37,3.1 -169.76,-87.2 -17.55,-103 -22.69,-238.4 -24.2,-310 -0.6,-28.2 19.58,-52.5 47.41,-57.3 l 311.71,-53.1 c 28.55,-4.9 56.21,12.4 64.3,40.3 27.2,93.6 83.02,292.1 76.87,324.5 -20.93,110.4 -306.33,142.8 -306.33,142.8"
            style="fill:#0e2549;fill-opacity:1;fill-rule:nonzero;stroke:none"/><path id="path140"
                                                                                     d="m 7536.09,14731.7 c 86.66,-25.4 199.9,-27.5 235.75,-2 21.03,14.9 40.34,84.7 56.2,165.4 0.46,2.3 2.13,4.2 4.36,5 23.98,8.8 60.15,30.2 66.09,70.6 5.15,35 -22.27,32.1 -44.74,24.4 -4.01,-1.4 -8.02,2 -7.38,6.2 15.04,98 24.05,184.7 24.05,184.7 l -395.39,67.3 c 0,0 -14.08,-87.2 -26.94,-185.6 -0.58,-4.4 -5.77,-6.5 -9.19,-3.6 -18.86,15.6 -45.97,30.4 -53.03,-6 -8.8,-45.4 27.12,-80.7 46.39,-94.2 2,-1.4 3.07,-3.7 2.82,-6.1 -7.15,-69.8 -10.7,-130.5 -4.8,-153.2 3.22,-12.4 11.51,-23.6 23.49,-33.7 l 82.32,-39.2"
                                                                                     style="fill:#fff;fill-opacity:1;fill-rule:nonzero;stroke:none"/><path
            id="path142"
            d="m 7678.54,14696.8 c -48.22,0 -102.88,7.7 -146.65,20.5 -7.95,2.3 -12.51,10.6 -10.2,18.6 2.33,7.9 10.68,12.5 18.61,10.2 91.23,-26.7 194.72,-24.2 222.87,-4.2 5.31,3.8 24.62,26.1 50.15,156.1 1.46,7.4 6.78,13.6 13.9,16.2 15.2,5.6 51.1,22.5 56.43,58.7 1.17,7.9 -0.2,11 -0.52,11.2 -1.14,1 -8.13,2.4 -24.52,-3.2 -6.84,-2.3 -14.29,-1 -19.89,3.7 -5.59,4.7 -8.28,11.8 -7.18,19 11.31,73.7 19.27,141.6 22.44,170 l -366.5,62.4 c -4.56,-29.1 -14.93,-96.9 -24.52,-170.3 -0.98,-7.4 -5.93,-13.8 -12.93,-16.5 -7.01,-2.8 -14.93,-1.5 -20.72,3.3 -15.05,12.5 -22.94,13.7 -24.5,13.1 -0.39,-0.1 -2.68,-2.5 -4.21,-10.4 -8.46,-43.6 35.22,-75.5 40.23,-78.9 6.47,-4.6 9.98,-12.2 9.17,-20.1 -10.74,-104.7 -7.87,-137.6 -5.2,-147.9 2.28,-8.7 8.54,-17.4 18.6,-25.9 6.36,-5.3 7.2,-14.7 1.88,-21.1 -5.32,-6.4 -14.78,-7.2 -21.13,-1.9 -14.96,12.5 -24.5,26.5 -28.38,41.4 -5.62,21.6 -4.34,71.9 3.91,153.7 -28.7,21.7 -57.3,61.2 -48.54,106.4 3.4,17.5 11.33,28.6 23.57,33 11.74,4.2 25.09,1.4 40.59,-8.6 12.15,91 24.79,169.6 24.92,170.4 l 2.41,15 424.17,-72.3 -1.46,-14 c -0.08,-0.8 -8.35,-79.7 -21.98,-171.1 16.82,3.5 29.86,1.4 38.95,-6.1 9.88,-8.2 13.59,-21.2 11.02,-38.7 -7.17,-48.7 -49.45,-71.9 -71.46,-80.8 -26.32,-132.2 -47.59,-160.5 -61.35,-170.3 -20.31,-14.4 -58.53,-20.6 -101.98,-20.6"
            style="fill:#0e2549;fill-opacity:1;fill-rule:nonzero;stroke:none"/><path id="path144"
                                                                                     d="m 7465.05,15244.6 c 49.28,-88.4 311.98,-211.9 487.03,25 175.05,236.8 -231.03,95.9 -359,80 -54.78,-6.8 -170.21,-29.3 -128.03,-105"
                                                                                     style="fill:#0e2549;fill-opacity:1;fill-rule:nonzero;stroke:none"/><path
            id="path146"
            d="m 6230.7,13322.4 c 0,0 -74.17,-102.5 -134.59,-142.5 -60.41,-40 -330.41,-31.6 -330.41,-99.6 0,-67.9 369.66,-34.7 412.5,0 42.83,34.8 177.5,157.6 177.5,157.6 l -125,84.5"
            style="fill:#fff;fill-opacity:1;fill-rule:nonzero;stroke:none"/><path id="path148"
                                                                                  d="m 6234.17,13301.9 c -21.65,-28.5 -79.46,-101.2 -129.77,-134.6 -27.32,-18 -84.61,-26.1 -150.95,-35.4 -64.61,-9 -172.75,-24.2 -172.75,-51.6 0,-2.4 4.03,-5.9 10.52,-9 71.14,-33.9 343.83,-6.7 377.53,20.7 33.85,27.4 127.09,111.8 162.74,144.2 z m -322.51,-275.7 c -56.25,0 -106.33,5.2 -133.34,18.1 -22.83,10.8 -27.62,25.6 -27.62,36 0,53.5 96.46,67 198.59,81.3 57.47,8.1 116.9,16.4 138.55,30.8 57.48,38 129.98,137.7 130.7,138.8 l 8.52,11.7 152.83,-103.2 -14.08,-12.9 c -5.52,-5 -135.48,-123.5 -178.16,-158.1 -26.82,-21.8 -163.69,-42.5 -275.99,-42.5"
                                                                                  style="fill:#0e2549;fill-opacity:1;fill-rule:nonzero;stroke:none"/><path
            id="path150"
            d="m 7493,13042.7 33.2,72.8 -105.47,153.7 c -4.7,6.8 -14.04,8.5 -20.86,3.9 -6.83,-4.7 -8.57,-14.1 -3.88,-20.9 l 95.88,-139.7 -31.92,-70 -396.05,-183.4 271.24,-816.8 c 2.09,-6.3 7.95,-10.2 14.24,-10.2 1.56,0 3.15,0.2 4.72,0.7 7.86,2.6 12.12,11.1 9.51,19 l -262.79,791.3 341.57,158.2 c -0.25,-5.9 3.03,-11.6 8.75,-14.3 2.02,-0.9 4.13,-1.3 6.21,-1.3 5.7,0 11.15,3.2 13.66,8.8 l 9.06,19.8 281.47,-238.4 -398.18,-1171.7 c -2.66,-7.9 1.54,-16.4 9.38,-19.1 1.6,-0.5 3.23,-0.8 4.83,-0.8 6.25,0 12.08,4 14.2,10.2 l 404.75,1191.1 -303.52,257.1"
            style="fill:#0e2549;fill-opacity:1;fill-rule:nonzero;stroke:none"/><path id="path152"
                                                                                     d="m 8436.12,12822.7 c 0,0 -200.16,-52.7 -222.6,-61.2 -51.9,-19.7 -80.76,663.2 -121.16,717.5 -20.87,28.1 -159.12,308.1 -170,306.7 -30.24,-3.8 -24.99,-590.7 -63.34,-592.2 -257.9,-9.7 -930.29,23.6 -941.85,27.9 -22.72,8.5 78.53,626 78.53,626 -43.11,-53.5 -144.63,-308.6 -265,-435 -189.84,-199.4 -411.67,-280 -411.67,-280 -22.21,22.3 -145.78,141.1 -153.33,170 -11.58,44 281.81,333.8 306.29,375 l 422.21,701.4 314.01,146 c 29.06,4.6 58.53,-4.3 80.44,-23.9 216.72,-193.7 471.5,-121.3 564.23,-84.9 24.41,9.6 51.66,8.9 75.53,-1.9 l 222.32,-178.9 329.73,-634.8 c 18.37,-87.3 40.63,-750.5 -44.34,-777.7"
                                                                                     style="fill:#e2474b;fill-opacity:1;fill-rule:nonzero;stroke:none"/><path
            id="path154"
            d="m 4933.15,10288.3 c -0.02,0 -0.04,0 -0.06,0 -8.29,0 -14.97,6.8 -14.94,15.1 l 1.05,252.8 c 0.04,8.2 6.75,14.9 15,14.9 0.02,0 0.04,0 0.07,0 8.28,0 14.97,-6.8 14.93,-15 l -1.05,-252.9 c -0.03,-8.2 -6.74,-14.9 -15,-14.9"
            style="fill:#0e2549;fill-opacity:1;fill-rule:nonzero;stroke:none"/><path id="path156"
                                                                                     d="m 10593.2,13541.7 c -2.5,0 -5,0.6 -7.3,1.9 -7.2,4.1 -9.8,13.2 -5.7,20.4 l 191.2,339.3 c 4.1,7.2 13.2,9.7 20.4,5.7 7.3,-4.1 9.8,-13.2 5.7,-20.4 l -191.2,-339.3 c -2.7,-4.9 -7.8,-7.6 -13.1,-7.6"
                                                                                     style="fill:#0e2549;fill-opacity:1;fill-rule:nonzero;stroke:none"/><path
            id="path158"
            d="m 10354.6,13485.8 c -5.7,0 -11.2,3.3 -13.7,8.9 l -103.8,230.5 c -3.3,7.6 0,16.5 7.6,19.8 7.5,3.4 16.4,0.1 19.8,-7.5 l 103.8,-230.5 c 3.4,-7.6 0,-16.5 -7.5,-19.9 -2,-0.8 -4.1,-1.3 -6.2,-1.3"
            style="fill:#0e2549;fill-opacity:1;fill-rule:nonzero;stroke:none"/><path id="path160"
                                                                                     d="m 4707.27,10152.1 c -3.1,0 -6.21,1 -8.89,2.9 l -313.66,230.9 c -6.67,4.9 -8.1,14.3 -3.19,20.9 4.92,6.7 14.31,8.1 20.97,3.2 l 313.67,-230.8 c 6.67,-4.9 8.1,-14.3 3.19,-21 -2.94,-4 -7.49,-6.1 -12.09,-6.1"
                                                                                     style="fill:#0e2549;fill-opacity:1;fill-rule:nonzero;stroke:none"/><path
            id="path162" d="m 7445.35,12023.6 -106.28,-317.1 -52.13,90.1 133.31,309.2 25.1,-82.2"
            style="fill:#1e5272;fill-opacity:1;fill-rule:nonzero;stroke:none"/><path id="path164"
                                                                                     d="m 7327.64,11259.9 c -2.09,0 -4.23,0.4 -6.26,1.4 l -95.45,43.8 c -7.53,3.5 -10.82,12.4 -7.36,19.9 3.46,7.6 12.36,10.9 19.9,7.4 l 95.45,-43.9 c 7.53,-3.5 10.82,-12.4 7.36,-19.9 -2.53,-5.5 -7.96,-8.7 -13.64,-8.7"
                                                                                     style="fill:#0e2549;fill-opacity:1;fill-rule:nonzero;stroke:none"/><path
            id="path166"
            d="m 7351.35,11328.3 c -2.1,0 -4.23,0.4 -6.26,1.3 l -95.45,43.9 c -7.53,3.5 -10.83,12.4 -7.36,19.9 3.46,7.6 12.36,10.9 19.89,7.4 l 95.45,-43.9 c 7.53,-3.5 10.83,-12.4 7.37,-19.9 -2.53,-5.5 -7.96,-8.7 -13.64,-8.7"
            style="fill:#0e2549;fill-opacity:1;fill-rule:nonzero;stroke:none"/><path id="path168"
                                                                                     d="m 7375.37,11396.7 c -2.09,0 -4.23,0.4 -6.26,1.3 l -95.45,43.9 c -7.53,3.5 -10.82,12.4 -7.36,19.9 3.46,7.6 12.35,10.9 19.9,7.4 l 95.45,-43.9 c 7.52,-3.5 10.82,-12.4 7.36,-19.9 -2.53,-5.5 -7.96,-8.7 -13.64,-8.7"
                                                                                     style="fill:#0e2549;fill-opacity:1;fill-rule:nonzero;stroke:none"/><path
            id="path170"
            d="m 7565.02,11415.8 c -5.68,0 -11.11,3.3 -13.64,8.8 -3.46,7.5 -0.16,16.4 7.36,19.9 l 95.45,43.9 c 7.54,3.4 16.44,0.1 19.9,-7.4 3.46,-7.5 0.17,-16.4 -7.36,-19.9 l -95.45,-43.9 c -2.03,-0.9 -4.17,-1.4 -6.26,-1.4"
            style="fill:#0e2549;fill-opacity:1;fill-rule:nonzero;stroke:none"/><path id="path172"
                                                                                     d="m 7539.65,11481 c -5.68,0 -11.11,3.2 -13.64,8.7 -3.46,7.6 -0.17,16.5 7.36,19.9 l 95.46,43.9 c 7.52,3.5 16.43,0.2 19.9,-7.3 3.46,-7.6 0.16,-16.5 -7.37,-19.9 l -95.46,-43.9 c -2.02,-1 -4.16,-1.4 -6.25,-1.4"
                                                                                     style="fill:#0e2549;fill-opacity:1;fill-rule:nonzero;stroke:none"/><path
            id="path174"
            d="m 7742.5,14973.3 c -0.89,0 -1.79,0 -2.69,0.2 -8.15,1.5 -13.56,9.3 -12.09,17.4 l 1.67,9.3 c 1.48,8.2 9.32,13.5 17.44,12.1 8.15,-1.5 13.56,-9.3 12.09,-17.4 l -1.68,-9.3 c -1.31,-7.3 -7.63,-12.3 -14.74,-12.3"
            style="fill:#0e2549;fill-opacity:1;fill-rule:nonzero;stroke:none"/><path id="path176"
                                                                                     d="m 7559.22,15004.5 c -0.79,0 -1.59,0.1 -2.39,0.2 -8.18,1.3 -13.75,9 -12.44,17.2 l 1.49,9.3 c 1.32,8.1 9.05,13.7 17.19,12.4 8.18,-1.3 13.75,-9 12.43,-17.2 l -1.49,-9.3 c -1.18,-7.3 -7.55,-12.6 -14.79,-12.6"
                                                                                     style="fill:#0e2549;fill-opacity:1;fill-rule:nonzero;stroke:none"/><path
            id="path178"
            d="m 7593.84,15051.8 c -2.11,0 -4.26,0.4 -6.3,1.4 -0.44,0.2 -27.29,12.1 -55.13,1.3 -7.74,-3 -16.42,0.9 -19.4,8.6 -2.99,7.7 0.86,16.4 8.59,19.4 40.14,15.5 77.07,-1.4 78.62,-2.2 7.5,-3.5 10.73,-12.4 7.21,-19.9 -2.56,-5.5 -7.96,-8.6 -13.59,-8.6"
            style="fill:#0e2549;fill-opacity:1;fill-rule:nonzero;stroke:none"/><path id="path180"
                                                                                     d="m 7788.54,15008.9 c -3.45,0 -6.91,1.2 -9.73,3.6 -22.77,19.4 -52.15,17 -52.47,17 -8.21,-0.7 -15.53,5.3 -16.32,13.5 -0.79,8.2 5.16,15.5 13.37,16.4 1.7,0.1 42.13,3.9 74.89,-24.1 6.3,-5.4 7.05,-14.8 1.68,-21.1 -2.97,-3.5 -7.19,-5.3 -11.42,-5.3"
                                                                                     style="fill:#0e2549;fill-opacity:1;fill-rule:nonzero;stroke:none"/><path
            id="path182"
            d="m 7666.96,14915.5 h 0.1 z m -34.56,-24.7 c -0.42,0 -0.84,0 -1.27,0 -8.28,0 -14.97,6.8 -14.94,15 0.03,8.3 6.74,15 15,15 0.22,0 0.45,0 0.67,0 11.25,0 23.17,0.9 30.98,2.2 -5.23,9.5 -13.16,26.1 -19.75,58.9 -1.63,8.1 3.62,16 11.75,17.7 8.13,1.6 16.03,-3.7 17.66,-11.8 6.59,-32.8 14.03,-45.8 18.48,-53.6 3.55,-6.3 7.98,-14 4.23,-24.3 -2.1,-5.7 -7.02,-19.1 -62.81,-19.1"
            style="fill:#0e2549;fill-opacity:1;fill-rule:nonzero;stroke:none"/><path id="path184"
                                                                                     d="m 7698.13,14862.4 c 4.51,-9.9 -31.35,-35.1 -66.73,-27.4 -57.73,12.5 -68.97,55.4 -55.38,50.2 5.32,-2.1 24.38,-17.7 59.07,-24.4 37.41,-7.4 60.02,8.3 63.04,1.6"
                                                                                     style="fill:#0e2549;fill-opacity:1;fill-rule:nonzero;stroke:none"/><path
            id="path186" d="m 9599.43,11198.6 -1182.81,-441.1 -592.94,1590.2 1182.82,441.1 592.93,-1590.2"
            style="fill:#fff;fill-opacity:1;fill-rule:nonzero;stroke:none"/><path id="path188"
                                                                                  d="m 7842.98,12338.9 582.45,-1562.1 1154.71,430.6 -582.45,1562.1 z m 564.82,-1600.7 -603.42,1618.3 1210.93,451.6 603.42,-1618.3 -1210.93,-451.6"
                                                                                  style="fill:#0e2549;fill-opacity:1;fill-rule:nonzero;stroke:none"/><path
            id="path190"
            d="m 8338.6,12151.2 c 27.29,-73.2 -9.92,-154.6 -83.11,-181.9 -73.18,-27.3 -154.63,9.9 -181.92,83.1 -27.29,73.2 9.92,154.6 83.1,181.9 73.19,27.3 154.64,-9.9 181.93,-83.1"
            style="fill:#fff;fill-opacity:1;fill-rule:nonzero;stroke:none"/><path id="path192"
                                                                                  d="m 8206.15,12228.3 c -14.91,0 -29.85,-2.7 -44.24,-8.1 -65.31,-24.3 -98.64,-97.3 -74.29,-162.6 24.36,-65.3 97.33,-98.6 162.64,-74.3 31.64,11.8 56.79,35.2 70.82,65.9 14.03,30.8 15.26,65.1 3.47,96.7 v 0 c -11.81,31.7 -35.22,56.8 -65.94,70.9 -16.74,7.6 -34.58,11.5 -52.46,11.5 z m 0.1,-283 c -63.46,0 -123.29,39 -146.73,101.8 -30.14,80.8 11.1,171.1 91.92,201.2 39.14,14.6 81.64,13.1 119.64,-4.2 38.01,-17.4 66.98,-48.5 81.57,-87.7 v 0 c 14.6,-39.1 13.08,-81.6 -4.28,-119.6 -17.36,-38 -48.48,-67 -87.63,-81.6 -17.95,-6.7 -36.37,-9.9 -54.49,-9.9"
                                                                                  style="fill:#0e2549;fill-opacity:1;fill-rule:nonzero;stroke:none"/><path
            id="path194"
            d="m 8524.35,11653 c 27.29,-73.2 -9.92,-154.6 -83.1,-181.9 -73.19,-27.3 -154.64,9.9 -181.93,83.1 -27.29,73.2 9.92,154.6 83.1,181.9 73.19,27.3 154.64,-9.9 181.93,-83.1"
            style="fill:#a1c5e2;fill-opacity:1;fill-rule:nonzero;stroke:none"/><path id="path196"
                                                                                     d="m 8703.69,11172.1 c 27.29,-73.2 -9.92,-154.7 -83.1,-182 -73.19,-27.3 -154.64,9.9 -181.93,83.1 -27.29,73.2 9.92,154.7 83.11,182 73.18,27.2 154.64,-10 181.92,-83.1"
                                                                                     style="fill:#fff;fill-opacity:1;fill-rule:nonzero;stroke:none"/><path
            id="path198"
            d="m 8571.04,11249.1 c -14.64,0 -29.53,-2.6 -44.03,-8 -65.32,-24.4 -98.65,-97.3 -74.3,-162.6 24.36,-65.3 97.3,-98.6 162.64,-74.3 65.31,24.3 98.64,97.3 74.29,162.6 v 0 c -18.95,50.8 -67.31,82.3 -118.6,82.3 z m 0.31,-282.9 c -63.47,0 -123.3,38.9 -146.74,101.8 -30.13,80.8 11.1,171.1 91.92,201.2 80.8,30.2 171.08,-11.1 201.22,-91.9 v 0 c 30.13,-80.8 -11.1,-171.1 -91.92,-201.2 -17.94,-6.7 -36.37,-9.9 -54.48,-9.9"
            style="fill:#0e2549;fill-opacity:1;fill-rule:nonzero;stroke:none"/><path id="path200"
                                                                                     d="m 8417.63,12284.1 515.33,192.1 -515.33,-192.1"
                                                                                     style="fill:#fff;fill-opacity:1;fill-rule:nonzero;stroke:none"/><path
            id="path202"
            d="m 8417.63,12269.1 c -6.09,0 -11.81,3.7 -14.06,9.7 -2.89,7.8 1.05,16.4 8.82,19.3 l 515.33,192.2 c 7.76,2.9 16.41,-1.1 19.3,-8.8 2.89,-7.8 -1.05,-16.4 -8.82,-19.3 L 8422.87,12270 c -1.73,-0.6 -3.5,-0.9 -5.24,-0.9"
            style="fill:#0e2549;fill-opacity:1;fill-rule:nonzero;stroke:none"/><path id="path204"
                                                                                     d="m 8480.46,12115.6 245.39,91.5 -245.39,-91.5"
                                                                                     style="fill:#fff;fill-opacity:1;fill-rule:nonzero;stroke:none"/><path
            id="path206"
            d="m 8480.46,12100.6 c -6.08,0 -11.81,3.7 -14.05,9.7 -2.9,7.8 1.05,16.4 8.81,19.3 l 245.4,91.5 c 7.74,2.9 16.4,-1 19.29,-8.8 2.89,-7.7 -1.05,-16.4 -8.82,-19.3 l -245.39,-91.5 c -1.73,-0.6 -3.5,-0.9 -5.24,-0.9"
            style="fill:#0e2549;fill-opacity:1;fill-rule:nonzero;stroke:none"/><path id="path208"
                                                                                     d="m 8577.08,11819 515.33,192.1 -515.33,-192.1"
                                                                                     style="fill:#fff;fill-opacity:1;fill-rule:nonzero;stroke:none"/><path
            id="path210"
            d="m 8577.08,11804 c -6.09,0 -11.81,3.7 -14.06,9.7 -2.89,7.8 1.05,16.4 8.82,19.3 l 515.33,192.2 c 7.75,2.9 16.41,-1.1 19.29,-8.8 2.9,-7.8 -1.04,-16.4 -8.81,-19.3 l -515.34,-192.2 c -1.72,-0.6 -3.49,-0.9 -5.23,-0.9"
            style="fill:#0e2549;fill-opacity:1;fill-rule:nonzero;stroke:none"/><path id="path212"
                                                                                     d="m 8639.91,11650.5 245.39,91.5 -245.39,-91.5"
                                                                                     style="fill:#fff;fill-opacity:1;fill-rule:nonzero;stroke:none"/><path
            id="path214"
            d="m 8639.91,11635.4 c -6.09,0 -11.81,3.8 -14.06,9.8 -2.89,7.8 1.05,16.4 8.82,19.3 l 245.4,91.5 c 7.75,2.9 16.4,-1 19.29,-8.8 2.9,-7.8 -1.05,-16.4 -8.81,-19.3 l -245.4,-91.5 c -1.73,-0.6 -3.5,-1 -5.24,-1"
            style="fill:#0e2549;fill-opacity:1;fill-rule:nonzero;stroke:none"/><path id="path216"
                                                                                     d="m 8791.56,11281.2 515.34,192.2 -515.34,-192.2"
                                                                                     style="fill:#fff;fill-opacity:1;fill-rule:nonzero;stroke:none"/><path
            id="path218"
            d="m 8791.57,11266.2 c -6.09,0 -11.81,3.7 -14.06,9.8 -2.89,7.7 1.05,16.4 8.82,19.3 l 515.33,192.1 c 7.75,2.9 16.41,-1 19.29,-8.8 2.9,-7.8 -1.05,-16.4 -8.81,-19.3 l -515.33,-192.1 c -1.73,-0.7 -3.5,-1 -5.24,-1"
            style="fill:#0e2549;fill-opacity:1;fill-rule:nonzero;stroke:none"/><path id="path220"
                                                                                     d="m 8854.39,11112.7 245.4,91.5 -245.4,-91.5"
                                                                                     style="fill:#fff;fill-opacity:1;fill-rule:nonzero;stroke:none"/><path
            id="path222"
            d="m 8854.4,11097.7 c -6.08,0 -11.81,3.7 -14.05,9.8 -2.9,7.7 1.05,16.4 8.81,19.3 l 245.4,91.5 c 7.75,2.8 16.4,-1.1 19.29,-8.9 2.89,-7.7 -1.05,-16.3 -8.82,-19.2 l -245.39,-91.5 c -1.72,-0.7 -3.5,-1 -5.24,-1"
            style="fill:#0e2549;fill-opacity:1;fill-rule:nonzero;stroke:none"/><path id="path224"
                                                                                     d="m 8390.12,11560.1 -178.45,90.3 c -7.39,3.8 -10.35,12.8 -6.61,20.2 3.74,7.4 12.78,10.3 20.16,6.6 l 152.3,-77.1 167.8,313.1 c 3.9,7.3 12.99,10.1 20.31,6.2 7.29,-3.9 10.04,-13 6.13,-20.3 l -181.64,-339"
                                                                                     style="fill:#0e2549;fill-opacity:1;fill-rule:nonzero;stroke:none"/><path
            id="path226"
            d="m 8280.7,12539.2 c 5.8,-43.6 100.56,-158.6 136.93,-159 36.36,-0.5 106.37,169.3 94.73,198.8 -27.98,71 -30.45,75.3 -137.91,247.1 -2.99,4.8 -91.29,-9.4 -110,-11.8 -29.33,-3.8 -19.38,-40 -12.5,-104.4 6.38,-59.8 24.84,-141.4 28.75,-170.7"
            style="fill:#fff;fill-opacity:1;fill-rule:nonzero;stroke:none"/><path id="path228"
                                                                                  d="m 8365.54,12812.1 c -16.58,-0.7 -62.21,-7.4 -80.69,-10.1 -8.13,-1.2 -14.71,-2.1 -18.48,-2.6 -8.66,-1.1 -8.36,-14.4 -2.82,-59.6 1.07,-8.8 2.23,-18.2 3.32,-28.4 3.97,-37.2 12.7,-83 19.71,-119.7 4.02,-21.2 7.5,-39.4 8.99,-50.6 v 0 c 5.5,-41.3 97.91,-145.6 122.26,-145.9 2.3,0.5 13.08,8.3 29.79,36.7 31.86,54.1 54.89,127.9 50.74,141.8 -27.19,69 -28.76,72 -132.82,238.4 z m 52.26,-446.9 c -0.12,0 -0.25,0 -0.37,0 -47.53,0.6 -145.64,127.3 -151.6,172 v 0 c -1.38,10.3 -4.78,28.2 -8.73,48.8 -7.1,37.4 -15.96,83.8 -20.07,122.3 -1.06,9.9 -2.2,19.2 -3.26,27.8 -6.02,49.1 -10.78,88 28.76,93.1 3.68,0.4 10.07,1.4 17.98,2.5 96.32,14.1 100.14,12.8 106.65,2.4 108.26,-173.1 110.86,-177.7 139.16,-249.6 11.99,-30.4 -30.86,-137.4 -63.49,-184.6 -16.36,-23.7 -30.68,-34.7 -45.03,-34.7"
                                                                                  style="fill:#0e2549;fill-opacity:1;fill-rule:nonzero;stroke:none"/><path
            id="path230" d="m 8410.32,12908.7 15.19,-88.8 -209.18,-57.4 -24.97,98.9 218.96,47.3"
            style="fill:#e2474b;fill-opacity:1;fill-rule:nonzero;stroke:none"/><path id="path232"
                                                                                     d="m 4271.42,6039.5 -159.2,-1376.2 -190.25,98.3 -90.93,1258.9 440.38,19"
                                                                                     style="fill:#fff;fill-opacity:1;fill-rule:nonzero;stroke:none"/><path
            id="path234"
            d="m 3936.33,4771.1 163.48,-84.5 154.68,1337.2 -407.38,-17.7 z m 188.29,-131.1 -217,112.2 -92.65,1282.6 473.37,20.5 L 4124.62,4640"
            style="fill:#0e2549;fill-opacity:1;fill-rule:nonzero;stroke:none"/><path id="path236"
                                                                                     d="m 4136.42,4776.8 c 0,0 309.2,-99.2 319.62,-180.2 l -554.97,1.7 0.56,179.2 234.79,-0.7"
                                                                                     style="fill:#e2474b;fill-opacity:1;fill-rule:nonzero;stroke:none"/><path
            id="path238" d="m 3061.91,6251.4 -1338.96,152.9 -28.14,212.3 1151.79,22.9 215.31,-388.1"
            style="fill:#fff;fill-opacity:1;fill-rule:nonzero;stroke:none"/><path id="path240"
                                                                                  d="M 1736.28,6417.9 3034.65,6269.6 2837.86,6624.3 1711.89,6602 Z m 1352.89,-184.7 -1379.55,157.6 -31.88,240.5 1177.59,23.3 233.84,-421.4"
                                                                                  style="fill:#0e2549;fill-opacity:1;fill-rule:nonzero;stroke:none"/><path
            id="path242" d="m 1738.56,6408 c 0,0 -83.94,-313.7 -164.32,-328 l -25.44,554.4 179,8.2 10.76,-234.6"
            style="fill:#e2474b;fill-opacity:1;fill-rule:nonzero;stroke:none"/><path id="path244"
                                                                                     d="m 3846.27,7114.7 c 0,0 -575.23,-813.9 -687.79,-904.9 C 2948.19,6039.7 1883.09,6322 1883.09,6322 l 25.5,372.4 1002.5,4.4 c 0,0 289.01,524.2 333.66,804 44.65,279.8 398.7,514.4 398.7,514.4 L 4192.6,7388 c 0,0 120.57,-1019.5 123.44,-1422.2 l -69.69,-1054.1 h -399.26 l -64.68,1041 -155.17,1045.2 219.03,116.8"
                                                                                     style="fill:#a1c5e2;fill-opacity:1;fill-rule:nonzero;stroke:none"/><path
            id="path246"
            d="m 4657.6,8946.9 c 0,0 -103.13,-236.1 -93.67,-271.4 9.46,-35.3 98.38,-151.5 98.38,-151.5 l -433.43,-470.5 -398.49,197.8 134.76,433.8 c 0,0 247.55,81.8 271,109.1 32.44,37.7 121.6,271.2 121.6,271.2 l 299.85,-118.5"
            style="fill:#fff;fill-opacity:1;fill-rule:nonzero;stroke:none"/><path id="path248"
                                                                                  d="m 4232.29,8035.1 -420.01,208.5 140.84,453.3 7.32,2.5 c 119.5,39.5 251.04,89.4 264.34,104.6 25.21,29.3 94.41,202.5 118.96,266.8 2.94,7.7 11.62,11.6 19.36,8.7 7.74,-3 11.62,-11.7 8.66,-19.4 -9.22,-24.2 -91.05,-237.1 -124.24,-275.7 -23.35,-27.1 -204.07,-89.1 -270.33,-111.1 l -128.68,-414.2 376.96,-187.2 417.31,453.1 c -22.88,30.4 -84.77,114.6 -93.34,146.6 -10.04,37.5 69.73,224.8 94.41,281.3 3.32,7.6 12.13,11 19.75,7.7 7.6,-3.3 11.06,-12.1 7.74,-19.7 -48.03,-110 -97.21,-241.3 -92.9,-261.6 6.31,-23.6 62.1,-102.2 95.78,-146.2 l 7.66,-10 -449.59,-488"
                                                                                  style="fill:#0e2549;fill-opacity:1;fill-rule:nonzero;stroke:none"/><path
            id="path250"
            d="m 3730.64,8492.2 c -104.38,21 -297.22,84.8 -406.27,62.8 -47,-9.4 -426.76,-462.6 -420.23,-491.3 6.54,-28.7 30.63,-186.7 -0.49,-145.5 -21.83,29 -41.33,64.7 -51.01,83.3 -2.42,4.7 -9.23,4.1 -10.84,-0.9 -15.96,-49.4 -95.1,-173.4 -136.4,-187.7 -54.95,-19 -44.7,232.8 64.38,335.2 37.02,34.8 231.73,736.9 480.24,768.1 248.52,31.2 685.13,-24.2 685.13,-24.2 0,0 -61.9,-428.5 -204.51,-399.8"
            style="fill:#fff;fill-opacity:1;fill-rule:nonzero;stroke:none"/><path id="path252"
                                                                                  d="m 2918.92,8063 v 0 z m 514.55,847.6 c -65.32,0 -128,-2.6 -181.58,-9.3 -179.87,-22.6 -339.04,-437.2 -415.54,-636.4 -31.94,-83.2 -45.34,-117.4 -56.3,-127.7 -72.08,-67.7 -101.03,-210.1 -90.06,-282.5 3.07,-20.2 8.44,-27.1 10.08,-27.9 34.84,12.2 111.74,129.8 127.46,178.5 2.6,8 9.72,13.7 18.15,14.4 8.38,0.7 16.38,-3.7 20.28,-11.3 7.74,-14.9 21.86,-40.8 38.28,-65.1 -1.02,33.9 -9.5,94.2 -14.72,117.1 -1.67,7.3 0.36,15.8 15.84,39.8 57.09,88.2 364.23,459.1 416.05,469.6 85.96,17.2 217.89,-15.7 323.9,-42.1 32.58,-8.1 63.35,-15.8 88.29,-20.8 v 0 c 15.45,-3.1 30.16,0.5 44.98,10.9 83.74,59.1 128.77,298.3 139.31,361.2 -59.98,7 -284.37,31.6 -484.42,31.6 z M 2699.69,7796.9 c -11.05,0 -21.09,6.2 -28.06,17.7 -31.53,52.2 -9.65,252.9 87.88,344.5 7.04,7.6 28.29,63 48.83,116.5 84.61,220.4 242.11,630.7 439.82,655.5 247.54,31 684.5,-23.7 688.88,-24.2 l 15.14,-1.9 -2.18,-15.2 c -1.89,-13 -47.52,-321.3 -154.13,-396.5 -21.61,-15.2 -44.53,-20.6 -68.19,-15.8 v 0 c -25.61,5.1 -56.71,12.9 -89.62,21.1 -103.1,25.7 -231.4,57.7 -310.73,41.7 -40.52,-13.4 -389.76,-420.9 -407.99,-475.9 3.17,-15 8.78,-49.5 12.11,-81.8 6.55,-63.5 1.02,-78.7 -11.48,-84.5 -5.5,-2.6 -16.52,-4.5 -28.3,11.1 -16.75,22.3 -32.14,48.3 -42.99,67.9 -26.21,-58.9 -95.73,-163.6 -138.37,-178.4 -3.6,-1.2 -7.16,-1.8 -10.62,-1.8"
                                                                                  style="fill:#0e2549;fill-opacity:1;fill-rule:nonzero;stroke:none"/><path
            id="path254"
            d="m 4758.36,9479.6 c 49.39,-25.9 170.18,-87.3 133.7,-179.5 -41.61,-105.2 -112.87,-233.5 -151.61,-300.5 -15.29,-26.5 -47.6,-37.7 -75.96,-26.5 l -317.67,125.6 c -29.11,11.5 -44.93,43.1 -36.78,73.4 27.43,101.9 87.31,317 111.19,343.6 81.25,90.4 258.93,4.8 337.13,-36.1"
            style="fill:#0e2549;fill-opacity:1;fill-rule:nonzero;stroke:none"/><path id="path256"
                                                                                     d="m 4344.23,9020.3 c -10.1,24.6 10.9,97.8 40.76,179 0.86,2.4 0.44,4.9 -1.04,6.9 -15.94,20.6 -35.61,59.2 -18.96,98.7 14.43,34.3 36.55,17.2 51.77,-1.7 2.72,-3.4 8.01,-2.5 9.71,1.6 39.91,96.4 78.87,179.3 78.87,179.3 l 377.49,-149.2 c 0,0 -34.94,-86.2 -76.92,-181.8 -1.89,-4.3 -109.23,-229.4 -126.57,-246.7 -9.45,-9.5 -22.66,-15.2 -38.41,-17.9 0,0 -32.06,-10.2 -169.26,44.1 l -127.44,87.7"
                                                                                     style="fill:#fff;fill-opacity:1;fill-rule:nonzero;stroke:none"/><path
            id="path258"
            d="m 4632.33,8872.8 c -20.45,0 -67.26,6.7 -166.17,45.8 -7.7,3.1 -11.48,11.8 -8.44,19.5 3.05,7.7 11.77,11.5 19.47,8.4 125.29,-49.5 158.71,-43.7 160.05,-43.4 l 1,0.3 0.17,-0.1 c 13.31,2.3 23.51,6.9 30.33,13.7 15.15,16.4 116.13,226 123.47,242.2 31.55,71.8 59.4,139.1 70.99,167.3 L 4512.99,9465 c -12.39,-26.9 -42.4,-92.8 -72.66,-165.9 -2.83,-6.8 -9.1,-11.7 -16.36,-12.8 -7.25,-1 -14.3,1.8 -18.88,7.4 -10.92,13.6 -17.61,16 -19.18,15.9 -0.56,-0.1 -3.61,-2.2 -7.09,-10.5 -15.17,-36 6.84,-70.6 17.01,-83.8 4.68,-6 5.89,-14 3.23,-21.2 -48.21,-131.1 -43.53,-161.8 -40.95,-168.1 3.14,-7.7 -0.52,-16.5 -8.18,-19.6 -7.66,-3.1 -16.42,0.5 -19.57,8.2 -6.57,16 -9.57,52.6 39.1,185.9 -14.11,19.5 -38.28,62.8 -18.29,110.2 7.19,17.1 17.47,26.7 30.55,28.6 11.78,1.6 24,-3.5 36.43,-15.4 37.62,89.9 73.24,165.8 73.62,166.6 l 5.98,12.8 404.66,-160.1 -5.68,-14 c -0.35,-0.9 -35.5,-87.5 -77.09,-182.1 -0.95,-2.2 -109.3,-230.9 -129.69,-251.3 -11.19,-11.2 -26.64,-18.6 -45.95,-22 -2.13,-0.5 -5.83,-1 -11.67,-1"
            style="fill:#0e2549;fill-opacity:1;fill-rule:nonzero;stroke:none"/><path id="path260"
                                                                                     d="m 4550.45,9201.7 c -2.08,0 -4.18,0.5 -6.19,1.4 -7.55,3.4 -10.89,12.3 -7.46,19.8 l 3.47,7.7 c 3.43,7.5 12.33,10.8 19.86,7.5 7.55,-3.5 10.89,-12.4 7.46,-19.9 l -3.47,-7.7 c -2.51,-5.5 -7.97,-8.8 -13.67,-8.8"
                                                                                     style="fill:#0e2549;fill-opacity:1;fill-rule:nonzero;stroke:none"/><path
            id="path262"
            d="m 4712.94,9137.9 c -1.88,0 -3.79,0.4 -5.64,1.2 -7.67,3.1 -11.37,11.8 -8.25,19.5 l 3.73,9.2 c 3.12,7.6 11.88,11.3 19.54,8.2 7.68,-3.1 11.37,-11.8 8.25,-19.5 l -3.72,-9.2 c -2.37,-5.8 -7.98,-9.4 -13.91,-9.4"
            style="fill:#0e2549;fill-opacity:1;fill-rule:nonzero;stroke:none"/><path id="path264"
                                                                                     d="m 4584.85,9256.5 c -4.1,0 -8.18,1.7 -11.13,5 v 0 c -0.27,0.3 -26.5,28.6 -51.53,17.3 -7.59,-3.4 -16.45,0 -19.83,7.6 -3.4,7.5 -0.02,16.4 7.53,19.8 45.14,20.3 84.47,-22.8 86.12,-24.7 5.53,-6.1 5.02,-15.6 -1.15,-21.1 -2.87,-2.6 -6.45,-3.9 -10.01,-3.9"
                                                                                     style="fill:#0e2549;fill-opacity:1;fill-rule:nonzero;stroke:none"/><path
            id="path266"
            d="m 4583.67,9522.3 c 0,0 -158.88,113.4 -198.81,-142.1 -22.83,-146.1 -18.38,52.1 171.89,90.7 19.75,4 26.92,51.4 26.92,51.4"
            style="fill:#0e2549;fill-opacity:1;fill-rule:nonzero;stroke:none"/><path id="path268"
                                                                                     d="m 1605.9,6061.2 -46.5,-2.1 -27.04,589 53.16,2.4 20.38,-589.3"
                                                                                     style="fill:#0e2549;fill-opacity:1;fill-rule:nonzero;stroke:none"/><path
            id="path270" d="m 3883.83,4632.2 -0.15,-49.6 589.65,-1.8 0.17,53.2 -589.67,-1.8"
            style="fill:#0e2549;fill-opacity:1;fill-rule:nonzero;stroke:none"/><path id="path272"
                                                                                     d="m 1581.61,6506.9 c -7.97,0 -14.6,6.3 -14.97,14.3 -0.39,8.3 6.02,15.3 14.29,15.7 l 107.41,4.9 c 8.38,0.5 15.29,-6 15.67,-14.3 0.38,-8.3 -6.02,-15.3 -14.29,-15.7 l -107.41,-4.9 c -0.23,0 -0.47,0 -0.7,0"
                                                                                     style="fill:#0e2549;fill-opacity:1;fill-rule:nonzero;stroke:none"/><path
            id="path274"
            d="m 4015,4610.6 c -0.02,0 -0.03,0 -0.05,0 -8.28,0 -14.98,6.8 -14.95,15.1 l 0.33,107.5 c 0.03,8.2 6.74,14.9 15,14.9 0.02,0 0.03,0 0.05,0 8.28,0 14.98,-6.7 14.95,-15 L 4030,4625.6 c -0.03,-8.3 -6.74,-15 -15,-15"
            style="fill:#0e2549;fill-opacity:1;fill-rule:nonzero;stroke:none"/><path id="path276"
                                                                                     d="m 4630.99,9067 c -7.1,0 -13.59,0.8 -17.93,1.5 -8.17,1.4 -13.69,9.1 -12.33,17.3 1.36,8.2 9.09,13.7 17.26,12.3 9.15,-1.5 20.44,-1.3 24.16,0.4 2.83,4.7 3.02,7.5 3.21,47.3 0.05,9.8 0.11,21.7 0.25,36.2 0.22,7.3 1.87,42.9 13.35,60.6 3.24,5 10.04,11 24.04,11.6 27.65,0.8 78.38,-20.4 100.18,-48.7 5.06,-6.5 3.84,-15.9 -2.73,-21 -6.55,-5.1 -15.97,-3.8 -21.04,2.7 -18.42,24 -63.82,39 -76.4,37 -4.44,-9.3 -7.03,-30.4 -7.41,-42.8 -0.13,-14.1 -0.19,-26 -0.24,-35.8 -0.23,-46.2 -0.25,-51 -8.39,-64 -7.35,-11.8 -22.72,-14.6 -35.98,-14.6"
                                                                                     style="fill:#0e2549;fill-opacity:1;fill-rule:nonzero;stroke:none"/><path
            id="path278"
            d="m 4976.09,9533.6 c -50.32,40.4 -87.42,-1.5 -135.48,-14.2 -48.05,-12.6 -44.95,35.3 -90.4,81.2 -45.44,45.8 -72.41,-4.2 -130.06,-21.3 -57.65,-17.1 -57.2,5.6 -109.51,19 -37.25,9.5 -51.4,-24.5 -56.5,-44.8 -11.57,-2.3 -23.81,-6.6 -33.9,-14.7 -47.1,-37.6 16.37,-64.6 -35.06,-142.7 -24.96,-37.8 45.79,-110.4 49.07,-72.7 3.28,37.7 28.9,61.9 48.98,83.6 2.6,2.8 5.21,6.1 7.8,9.8 16.02,1.7 32.22,3.4 44.33,2.3 33.95,-3.1 62.79,-25.8 104.06,-58.3 41.26,-32.5 75.17,-17.3 114.67,-3.2 39.5,14.2 81.85,-9.3 91.38,-34.9 0.78,-2.1 2.52,-4 4.87,-5.7 -2.26,-9.3 -3.07,-17.4 -1.82,-23 6.2,-27.8 -6.66,-37.9 -32.71,-96.9 -26.06,-58.9 27.37,-21.1 34.68,-19.4 7.32,1.8 30.16,29.9 35.96,70.8 5.8,40.9 27.58,29.9 42.52,70 4.48,12 5.29,25 4.29,37.2 1.28,11.3 1.83,22.2 9.1,30 15.2,16.3 51.76,3.6 84.24,42.2 32.47,38.5 -0.18,65.3 -50.51,105.7"
            style="fill:#0e2549;fill-opacity:1;fill-rule:nonzero;stroke:none"/><path id="path280"
                                                                                     d="m 4629.61,9020.2 c 2.66,-7.9 -10.7,-30.7 -31.8,-20.1 -54.12,27.2 -87.72,88.9 -75.68,80.1 4.72,-3.5 36.53,-27.2 58.85,-40.2 30.35,-17.6 45.62,-10.8 48.63,-19.8"
                                                                                     style="fill:#0e2549;fill-opacity:1;fill-rule:nonzero;stroke:none"/><path
            id="path282"
            d="m 3907.57,7123.5 81.11,174.6 c 3.49,7.5 0.23,16.4 -7.28,19.9 -7.52,3.5 -16.44,0.2 -19.93,-7.3 l -75.18,-161.8 -87.11,-23 -162.72,-289.1 c -4.07,-7.2 -1.51,-16.4 5.71,-20.5 2.33,-1.3 4.85,-1.9 7.34,-1.9 5.25,0 10.33,2.8 13.09,7.7 l 119.94,213.1 103.54,-1015.8 41.36,-1036.3 c 0.32,-8.1 6.97,-14.4 14.98,-14.4 0.2,0 0.4,0 0.6,0 8.28,0.4 14.72,7.3 14.4,15.6 l -41.42,1037.2 -107.93,1059 11.04,19.6 88.46,23.4"
            style="fill:#0e2549;fill-opacity:1;fill-rule:nonzero;stroke:none"/><path id="path284"
                                                                                     d="m 3663.8,7461.2 c -2.55,7.8 -11.02,12.2 -18.89,9.6 l -232.47,-75.2 c -7.88,-2.6 -12.21,-11 -9.66,-18.9 2.06,-6.3 7.94,-10.4 14.27,-10.4 1.53,0 3.09,0.3 4.62,0.8 l 83.16,26.9 -492.6,-849.8 -1021.63,25.7 c -8.28,0.3 -15.17,-6.3 -15.38,-14.6 -0.21,-8.3 6.34,-15.2 14.62,-15.4 l 1030.53,-25.9 8.89,-0.3 518.25,894.1 106.64,34.5 c 7.88,2.5 12.2,11 9.65,18.9"
                                                                                     style="fill:#0e2549;fill-opacity:1;fill-rule:nonzero;stroke:none"/><path
            id="path286"
            d="m 5822.25,8323.5 c -14.84,4.9 -35.58,1.6 -96.89,-10.4 -68.49,-13.3 -187.59,-37.3 -405.62,-72.6 -334.37,-54.1 -651.54,472.3 -704.22,443.6 -273.85,-149.7 -352.45,131.1 -369.17,175.5 -46.14,122.5 -919.62,149.3 -1100.93,75.4 -183.7,-74.9 -388.78,-658 -388.78,-658 l 236.5,-123.2 341.86,318.1 191.46,-65 -300.85,-739.3 1052.95,-409.3 c 0,0 150.36,395.1 179.97,471.7 0,0 84.78,140.2 165.02,298.7 158.24,-108.5 413.19,-208.6 583.11,-174.5 489.12,98.3 603.53,178.9 636,207.5 5.46,4.8 -20.41,261.8 -20.41,261.8"
            style="fill:#e2474b;fill-opacity:1;fill-rule:nonzero;stroke:none"/><path id="path288"
                                                                                     d="m 7202.43,8141.4 -1196.96,-116.9 -157.11,1609.2 1196.97,116.9 157.1,-1609.2"
                                                                                     style="fill:#fff;fill-opacity:1;fill-rule:nonzero;stroke:none"/><path
            id="path290"
            d="m 5864.75,9620.3 154.19,-1579.4 1167.11,113.9 -154.19,1579.4 z M 5992,8008.1 l -160.03,1639.1 14.93,1.5 1211.9,118.3 160.02,-1639.1 -14.93,-1.5 L 5992,8008.1"
            style="fill:#0e2549;fill-opacity:1;fill-rule:nonzero;stroke:none"/><path id="path292"
                                                                                     d="m 6140.41,9433.5 c -3.88,0 -7.78,-0.2 -11.72,-0.6 -31.83,-3.1 -60.55,-18.4 -80.85,-43.1 -20.32,-24.7 -29.79,-55.8 -26.68,-87.7 3.11,-31.8 18.42,-60.5 43.13,-80.8 24.71,-20.4 55.88,-29.9 87.68,-26.7 65.71,6.4 113.94,65.1 107.53,130.8 -6.03,61.8 -58.26,108.1 -119.09,108.1 z m -0.19,-269.5 c -76.07,0 -141.38,58 -148.92,135.2 -3.89,39.8 7.96,78.7 33.36,109.6 25.4,30.9 61.31,50.1 101.12,54 82.09,8 155.55,-52.3 163.58,-134.5 8.02,-82.2 -52.3,-155.6 -134.48,-163.6 -4.92,-0.5 -9.81,-0.7 -14.66,-0.7"
                                                                                     style="fill:#0e2549;fill-opacity:1;fill-rule:nonzero;stroke:none"/><path
            id="path294"
            d="m 6323.64,8822.7 c 7.23,-74 -46.94,-139.9 -121,-147.2 -74.07,-7.2 -139.96,47 -147.2,121 -7.23,74.1 46.95,140 121.01,147.2 74.06,7.3 139.97,-46.9 147.19,-121"
            style="fill:#a1c5e2;fill-opacity:1;fill-rule:nonzero;stroke:none"/><path id="path296"
                                                                                     d="m 6237.15,8442.6 c -3.88,0 -7.78,-0.1 -11.72,-0.5 -31.83,-3.1 -60.55,-18.4 -80.86,-43.2 -20.31,-24.7 -29.78,-55.8 -26.68,-87.6 6.42,-65.7 65.03,-114.1 130.81,-107.6 65.71,6.4 113.95,65.1 107.54,130.8 -6.03,61.8 -58.26,108.1 -119.09,108.1 z m -0.19,-269.4 c -76.08,0 -141.38,57.9 -148.92,135.2 -3.89,39.8 7.96,78.7 33.36,109.6 25.4,30.9 61.31,50 101.12,53.9 82.09,8 155.55,-52.3 163.57,-134.4 8.03,-82.2 -52.3,-155.6 -134.47,-163.6 -4.93,-0.5 -9.81,-0.7 -14.66,-0.7"
                                                                                     style="fill:#0e2549;fill-opacity:1;fill-rule:nonzero;stroke:none"/><path
            id="path298"
            d="m 6379.67,9414.9 c -7.62,0 -14.15,5.8 -14.9,13.5 -0.81,8.3 5.22,15.6 13.47,16.4 l 521.5,50.9 c 8.17,0.8 15.58,-5.2 16.38,-13.5 0.8,-8.2 -5.23,-15.5 -13.47,-16.3 l -521.5,-50.9 c -0.5,-0.1 -0.99,-0.1 -1.48,-0.1"
            style="fill:#0e2549;fill-opacity:1;fill-rule:nonzero;stroke:none"/><path id="path300"
                                                                                     d="m 6396.32,9244.4 c -7.63,0 -14.15,5.7 -14.91,13.5 -0.8,8.2 5.23,15.6 13.47,16.4 l 248.33,24.2 c 8.25,0.9 15.58,-5.2 16.39,-13.4 0.81,-8.3 -5.22,-15.6 -13.47,-16.4 l -248.33,-24.3 c -0.5,0 -0.99,0 -1.48,0"
                                                                                     style="fill:#0e2549;fill-opacity:1;fill-rule:nonzero;stroke:none"/><path
            id="path302"
            d="m 6412.75,8947.6 c -7.62,0 -14.15,5.8 -14.9,13.6 -0.81,8.2 5.22,15.5 13.46,16.4 l 521.5,50.9 c 8.21,0.8 15.58,-5.2 16.39,-13.5 0.8,-8.2 -5.23,-15.6 -13.47,-16.4 l -521.5,-50.9 c -0.49,-0.1 -0.99,-0.1 -1.48,-0.1"
            style="fill:#0e2549;fill-opacity:1;fill-rule:nonzero;stroke:none"/><path id="path304"
                                                                                     d="m 6429.4,8777.1 c -7.62,0 -14.15,5.8 -14.9,13.6 -0.81,8.2 5.22,15.5 13.47,16.3 l 248.33,24.3 c 8.2,0.8 15.58,-5.2 16.38,-13.5 0.81,-8.2 -5.22,-15.6 -13.47,-16.4 l -248.33,-24.2 c -0.49,-0.1 -0.99,-0.1 -1.48,-0.1"
                                                                                     style="fill:#0e2549;fill-opacity:1;fill-rule:nonzero;stroke:none"/><path
            id="path306"
            d="m 6478.75,8400 c -7.63,0 -14.16,5.8 -14.91,13.6 -0.8,8.2 5.23,15.6 13.47,16.4 l 521.51,50.9 c 8.17,0.8 15.58,-5.3 16.38,-13.5 0.81,-8.2 -5.22,-15.6 -13.47,-16.4 l -521.51,-50.9 c -0.49,-0.1 -0.98,-0.1 -1.47,-0.1"
            style="fill:#0e2549;fill-opacity:1;fill-rule:nonzero;stroke:none"/><path id="path308"
                                                                                     d="m 6495.4,8229.5 c -7.63,0 -14.15,5.8 -14.91,13.5 -0.8,8.3 5.23,15.6 13.47,16.4 l 248.33,24.3 c 8.26,0.8 15.59,-5.2 16.39,-13.5 0.81,-8.2 -5.22,-15.6 -13.47,-16.4 l -248.33,-24.2 c -0.5,-0.1 -0.99,-0.1 -1.48,-0.1"
                                                                                     style="fill:#0e2549;fill-opacity:1;fill-rule:nonzero;stroke:none"/><path
            id="path310"
            d="m 6177.38,8769 -142.75,127.3 c -6.18,5.5 -6.72,15 -1.21,21.1 5.51,6.2 14.99,6.8 21.17,1.3 l 120.87,-107.8 230.6,246.8 c 5.66,6 15.16,6.4 21.21,0.7 6.05,-5.6 6.37,-15.1 0.72,-21.2 L 6177.38,8769"
            style="fill:#0e2549;fill-opacity:1;fill-rule:nonzero;stroke:none"/><path id="path312"
                                                                                     d="m 5984.03,8208.3 c -80.68,-9.8 -151.89,-90.3 -151.89,-90.3 l -18.24,180.6 c 0,0 79.02,12.7 89.64,41.3 10.6,28.5 136.26,201.3 139.78,148 2.46,-37.5 -51.95,-132.6 -54.15,-154.2 -0.56,-5.4 -5.14,-125.4 -5.14,-125.4"
                                                                                     style="fill:#fff;fill-opacity:1;fill-rule:nonzero;stroke:none"/><path
            id="path314"
            d="m 5984.03,8208.3 h 0.1 z m -153.82,78.1 13.7,-135.6 c 26.47,24 73.03,59.6 125.6,70.3 1.4,36.4 4.24,109.3 4.73,114.1 1.04,10.2 8.18,26.6 20.69,54.6 11.93,26.7 29.12,65.2 32.78,87.7 -30.66,-24.6 -101.67,-120.1 -110.11,-142.9 -10.54,-28.3 -59.41,-42.4 -87.39,-48.2 z m -9.55,-204 -23.1,228.7 13.95,2.3 c 33.31,5.4 73.52,19.7 77.97,31.7 7.42,20 108.96,173.8 149.86,167.7 4.11,-0.6 17.64,-4.1 18.95,-23.9 1.76,-26.8 -18.28,-71.7 -35.96,-111.3 -7.86,-17.6 -17.64,-39.5 -18.24,-45.5 -0.42,-4.9 -3.26,-77.1 -5.07,-124.4 l -0.49,-12.8 -12.69,-1.5 c -74.17,-9 -141.79,-84.6 -142.47,-85.3 l -22.71,-25.7"
            style="fill:#0e2549;fill-opacity:1;fill-rule:nonzero;stroke:none"/><path id="path316"
                                                                                     d="m 5721.12,8312.3 31.99,-304.3 109.95,65.8 -31.24,251.9 -110.7,-13.4"
                                                                                     style="fill:#e2474b;fill-opacity:1;fill-rule:nonzero;stroke:none"/><g
            id="g318" transform="scale(1.07637)"><path id="path320" d="m 16208.5,8583.35 c -17.6,84.55 -27.6,333.53 -225.6,402.47 138.3,123.74 -118.3,231.61 -182.9,164.53 -59.2,-61.32 -13.8,-122.82 2.8,-141.4 -46,-4.74 -81.7,-0.84 -147.2,-62.34 -126.8,-119.11 -54.9,-318.39 -50.2,-399.58 4.9,-81.29 40,-461.55 40,-461.55 l 644,-138.8 c 0,0 10.6,194.63 -80.9,636.67" style="fill:#0e2549;fill-opacity:1;fill-rule:nonzero;stroke:none"/></g><g
            id="g322" transform="scale(1.05615)"><path id="path324" d="m 16092.7,9196.11 0.9,-19.03 c 0,0 153.4,-25 201.9,-26.32 l 4.5,19.5 c 0,0 -177.9,16.19 -207.3,25.85" style="fill:#a1c5e2;fill-opacity:1;fill-rule:nonzero;stroke:none"/></g><g
            id="g326" transform="scale(1.058)"><path id="path328" d="m 16131,5616.16 -14.2,-315.5 171.5,15.31 11.7,316.26 -169,-16.07" style="fill:#fff;fill-opacity:1;fill-rule:nonzero;stroke:none"/></g><g
            id="g330" transform="scale(1.05896)"><path id="path332" d="m 16130,5598.15 -12.8,-286.7 142.7,12.75 10.6,287.27 z m -42.6,-317.77 15.4,343.65 197.2,18.69 -12.7,-344.49 -199.9,-17.85" style="fill:#0e2549;fill-opacity:1;fill-rule:nonzero;stroke:none"/></g><g
            id="g334" transform="scale(1.05777)"><path id="path336" d="m 16111.3,5371.95 c 0,0 -260.5,40.08 -267.5,-72.23 -7.1,-112.41 0.1,-105.22 0.1,-105.22 l 449.3,0.28 6.8,131.98 c 0,0 -164.4,-28.08 -188.7,45.19" style="fill:#e2474b;fill-opacity:1;fill-rule:nonzero;stroke:none"/></g><g
            id="g338" transform="scale(1.00572)"><path id="path340" d="m 16122.2,6958.81 -14.9,-331.9 180.4,16.11 12.3,332.7 -177.8,-16.91" style="fill:#fff;fill-opacity:1;fill-rule:nonzero;stroke:none"/></g><g
            id="g342" transform="scale(1.00667)"><path id="path344" d="m 16121.2,6938.59 -13.5,-301.59 150.1,13.41 11.2,302.18 z m -44.8,-334.27 16.2,361.48 207.4,19.67 -13.4,-362.38 -210.2,-18.77" style="fill:#0e2549;fill-opacity:1;fill-rule:nonzero;stroke:none"/></g><g
            id="g346" transform="scale(1.00549)"><path id="path348" d="m 16101.5,6702.3 c 0,0 -274,42.07 -281.5,-76.08 -7.4,-118.25 0.1,-110.69 0.1,-110.69 l 472.7,0.29 7.2,138.84 c 0,0 -172.9,-29.54 -198.5,47.64" style="fill:#e2474b;fill-opacity:1;fill-rule:nonzero;stroke:none"/></g><g
            id="g350" transform="scale(1.00554)"><path id="path352" d="m 15808.8,6512.03 491.2,0.29 v 27.25 l -491.2,-0.3 v -27.24" style="fill:#0e2549;fill-opacity:1;fill-rule:nonzero;stroke:none"/></g><g
            id="g354" transform="scale(1.08136)"><path id="path356" d="m 15694.7,7087.82 43,-1668.36 249.7,-25.98 c 0,0 92.7,1272.74 192.4,1502.92 120.2,277.7 -38.2,587.59 -38.2,587.59 l -475.4,-49.85 c 0,0 -0.8,-32.18 -13.8,-52.71 -17.1,-26.82 -349.6,-130.57 -649,-395.79 -56.1,-49.66 -44.5,-355.2 -44.5,-600.64 l 232.7,-5.54 54.8,397.92 452.2,159.06 -3.9,151.38" style="fill:#e2474b;fill-opacity:1;fill-rule:nonzero;stroke:none"/></g><g
            id="g358" transform="scale(1.08177)"><path id="path360" d="m 15859.1,8317.97 c 87.1,-21.64 440.9,-119.99 295.2,-733.34 l -21.5,-25.52 8.1,-77.83 -459.1,-132.93 -17.2,76.63 c 0,0 -33.3,8.69 -83.4,74.7 -50.1,66.09 -61.5,231.56 -61.5,231.56 l 2.5,376.51 c 0,0 44.6,104.83 73.3,130.53 71.5,63.78 170.6,102.7 263.6,79.69" style="fill:#2e6b99;fill-opacity:1;fill-rule:nonzero;stroke:none"/></g><g
            id="g362" transform="scale(1.05782)"><path id="path364" d="m 15833.1,5191.23 466.9,0.28 v 25.91 l -466.9,-0.28 v -25.91" style="fill:#0e2549;fill-opacity:1;fill-rule:nonzero;stroke:none"/></g><path
            id="path366"
            d="m 16023.2,8572.7 c 0,0 -159.5,58.3 -157.1,33.4 2.3,-24.9 150.3,-66.2 149.7,-69.5 -1.1,-5.9 -81.2,13.6 -86.2,-3.7 -6.8,-23.7 110,-22.1 175.1,-24.2 65.1,-2.2 184.2,-37.2 184.2,-37.2 l -45.7,74.2 c 0,0 -75.5,34.8 -86,56.9 -10.4,22 -68.8,148.3 -67.8,105.4 0.6,-30 6.2,-63.2 9.5,-80.3 0.8,-4.3 -13.8,-5.1 -17.4,-2.7 -35.8,24 -146.3,100.5 -148.3,74.5 -2.3,-30.6 110.4,-88.8 108.5,-91.1 -6.5,-7.9 -125,76.3 -159.2,64.4 -49.1,-17.1 143.5,-101.4 143.5,-101.4 l -2.8,1.3"
            style="fill:#fff;fill-opacity:1;fill-rule:nonzero;stroke:none"/><g id="g368" transform="scale(1.00136)"><path id="path370" d="m 16005.3,8514.26 c 16.6,-0.7 32.9,-1 45.6,-1.3 11.6,-0.3 22.7,-0.5 32.5,-0.8 43.8,-1.5 109.8,-16.98 150.8,-27.66 l -23.4,37.94 c -22.4,10.59 -77.9,38.65 -89,62.02 l -2.4,5.09 c -14.7,31.26 -25.6,53.03 -33.8,68.21 2,-15.58 4.5,-29.66 6.2,-38.95 1.3,-6.79 -1.6,-13.48 -7.6,-17.47 -8.5,-5.59 -24.8,-5.89 -32.9,-0.5 l -8,5.39 c -54.7,36.95 -86.3,55.72 -104.5,64.61 11.4,-10.28 32.8,-26.26 72.7,-50.53 19.1,-11.68 22.1,-13.48 23.3,-21.07 l 1.2,-6.69 -4.4,-5.39 c -10.4,-12.59 -22.8,-5.8 -63.9,16.87 -22.2,12.39 -70.2,38.75 -92.8,42.85 20.5,-17.38 78.9,-48.34 132.1,-71.81 0.4,-0.2 0.8,-0.4 1.2,-0.59 0.7,-0.3 1.4,-0.61 2.1,-0.91 7.6,-3.29 11,-12.18 7.7,-19.77 -3.3,-7.59 -12.2,-10.98 -19.8,-7.69 -0.8,0.4 -1.7,0.8 -2.5,1.1 -36.1,13.18 -77.2,26.07 -106.2,33.05 27.5,-12.18 65.6,-25.16 82.1,-30.75 32.9,-11.18 39.7,-13.58 37.3,-27.16 -0.7,-3.5 -1.9,-6.2 -3.6,-8.09 z m 294.7,-79.7 -37.4,11.09 c -1.1,0.3 -117.8,34.45 -180.2,36.55 -9.7,0.3 -20.6,0.5 -32.1,0.8 -97.3,2.1 -140.2,5.89 -153.3,23.57 -4,5.59 -5.2,12.28 -3.4,18.97 2.2,7.49 7.3,12.18 14.4,14.88 -57.1,21.87 -76.8,35.85 -78.4,52.53 -0.6,6.89 2.1,13.18 7.5,17.27 2.9,2.3 8.7,6.8 31.8,4.2 -21,15.38 -31.3,28.56 -30.9,39.35 0.2,4.59 2.3,15.97 18,21.47 11.5,3.89 26.8,1.5 45.2,-5.19 -3.5,6.38 -5,12.68 -4.6,18.77 0.6,7.59 4.7,13.68 11.3,16.88 16,7.79 43.8,-1.5 151.2,-73.9 -3,18.07 -6,41.84 -6.5,64.11 -0.4,17.68 8.6,22.37 14,23.67 14.5,3.49 24.8,-0.3 79.9,-117.34 l 2.4,-4.9 c 4.9,-10.18 44.5,-33.95 78.6,-49.63 l 4.1,-1.89 68.4,-111.26" style="fill:#0e2549;fill-opacity:1;fill-rule:nonzero;stroke:none"/></g><g
            id="g372" transform="scale(1.06307)"><path id="path374" d="m 16300,8090.83 c 0,0 -22.5,-258.78 -215.9,-502.03 -90.7,-114.02 -273.8,-248.53 -429.5,-380.04 l -117.1,118.06 378.1,369.21 95.7,480.12 288.7,-85.32" style="fill:#2e6b99;fill-opacity:1;fill-rule:nonzero;stroke:none"/></g><g
            id="g376" transform="scale(1.04028)"><path id="path378" d="m 16258.2,8513.8 c 0,0 -45.5,58.83 -86.4,-26.05 -49.5,-102.86 -177.2,-277.81 -208.2,-293.48 -31.1,-15.57 -410.7,77.86 -410.7,77.86 l -60.4,-158.8 c 0,0 258.5,-93.82 425.8,-164.57 167.2,-70.85 381.7,235.8 381.7,235.8 l -41.8,329.24" style="fill:#2e6b99;fill-opacity:1;fill-rule:nonzero;stroke:none"/></g><g
            id="g380" transform="scale(1.04507)"><path id="path382" d="m 16142,7768.88 c -3.8,0 -7.5,1.53 -10.4,4.49 -5.5,5.74 -5.3,14.83 0.6,20.29 l 44.5,42.29 93.5,469.92 c 1.6,7.76 9.2,12.83 17,11.3 7.7,-1.63 12.8,-9.19 11.2,-16.94 l -95.4,-478.92 -51.1,-48.42 c -2.8,-2.67 -6.3,-4.01 -9.9,-4.01" style="fill:#0e2549;fill-opacity:1;fill-rule:nonzero;stroke:none"/></g><g
            id="g384" transform="scale(1.06255)"><path id="path386" d="m 15662.2,7198.14 c -4,0 -8,1.69 -10.7,5.08 -5.1,5.93 -4.4,14.87 1.7,19.86 l 410.4,346.71 c 29.3,38.21 139.7,350.01 207.2,551.88 2.5,7.44 10.5,11.39 17.8,8.94 7.4,-2.44 11.4,-10.44 9,-17.88 -17.6,-52.32 -172.4,-512.82 -213,-561.85 l -1.7,-1.79 -411.6,-347.56 c -2.6,-2.26 -5.8,-3.39 -9.1,-3.39" style="fill:#0e2549;fill-opacity:1;fill-rule:nonzero;stroke:none"/></g><g
            id="g388" transform="scale(1.03154)"><path id="path390" d="m 16283.7,8022.47 c -6.2,0 -12,4.07 -13.9,10.37 -52.2,171.88 -13.4,426.26 -11.8,437.02 1.3,7.95 8.7,13.28 16.6,12.12 8,-1.16 13.4,-8.63 12.1,-16.58 -0.4,-2.52 -39.3,-258.64 11,-424.12 2.3,-7.66 -2.1,-15.8 -9.7,-18.13 -1.5,-0.48 -2.9,-0.68 -4.3,-0.68" style="fill:#0e2549;fill-opacity:1;fill-rule:nonzero;stroke:none"/></g><g
            id="g392" transform="scale(1.05466)"><path id="path394" d="m 16288,8511.59 c 12,11.85 -21.5,248.51 -21.5,248.51 l -208.6,-41.05 c 0,0 -2.4,-228.42 -9.6,-265.4 0,0 135,-44.94 239.7,57.94" style="fill:#fff;fill-opacity:1;fill-rule:nonzero;stroke:none"/></g><g
            id="g396" transform="scale(1.05563)"><path id="path398" d="m 16263,8513.86 c -0.1,0 -0.1,0 -0.1,0 0,0 0,0 0.1,0 z m -2.5,-3.6 v 0 z m -211.3,-54 c 32.8,-7.67 130.9,-21.98 211.6,55.61 3.3,19.99 -7.8,124.95 -21.3,223.28 l -182.3,-35.91 c -0.6,-42.91 -2.8,-190.5 -8,-242.98 z m 56,-34.67 c -43,0 -73.6,9.95 -76.3,10.8 l -11.9,3.98 2.5,12.22 c 5.7,29.17 8.7,199.41 9.4,262.49 l 0.2,11.56 234.3,46.23 2.1,-14.87 c 34.5,-243.55 22.9,-254.92 17.4,-260.41 v 0 c -59.3,-58.26 -127.1,-72 -177.7,-72" style="fill:#0e2549;fill-opacity:1;fill-rule:nonzero;stroke:none"/></g><g
            id="g400" transform="scale(1.05912)"><path id="path402" d="m 16198.6,8663.02 c 32.9,17.94 91.3,54.95 96.3,95.64 5.1,40.7 -41.9,40.04 -56.6,34.84 -10,-3.49 23.8,224.81 23.8,224.81 l -313.1,51.08 c 0,0 -69.7,-202.9 -68.3,-316.67 1.5,-114.15 50.8,-147.96 132.8,-158.81 40.6,-5.48 73.5,0.56 100,11.33 l 85.1,57.78" style="fill:#fff;fill-opacity:1;fill-rule:nonzero;stroke:none"/></g><g
            id="g404" transform="scale(1.05988)"><path id="path406" d="m 16031.4,8571.51 c -10.2,0 -20.6,0.75 -31.2,2.17 -101.7,13.49 -143.6,63.49 -145.1,172.66 -1.4,114.73 66.2,312.77 69,321.17 l 4,11.32 338.4,-55.29 -2,-13.78 c -12.1,-82.27 -23.8,-172.84 -25.5,-206.15 13.5,0.85 30.7,-1.23 43.4,-11.51 8.3,-6.7 17.6,-19.25 14.9,-41.42 -5.5,-44.25 -59.4,-82.27 -103.6,-106.33 -6.8,-3.78 -15.4,-1.23 -19.2,5.66 -3.8,6.89 -1.2,15.47 5.7,19.15 53.5,29.15 85.9,60.1 89,85.01 1.3,10 -2,13.87 -4.6,15.95 -8.7,6.88 -26.6,6.03 -33.4,3.67 l -7.4,-2.63 -6.8,5.18 c -7,5.76 -13.7,11.23 17.4,223.8 l -287.3,46.89 c -14.3,-43.97 -64.8,-205.68 -63.7,-300.41 1.5,-107.55 47.1,-135.2 120.5,-144.92 33.4,-4.43 64.7,-0.94 92.7,10.48 7.2,2.92 15.5,-0.57 18.5,-7.84 2.9,-7.26 -0.6,-15.47 -7.9,-18.39 -23.6,-9.63 -49,-14.44 -75.8,-14.44" style="fill:#0e2549;fill-opacity:1;fill-rule:nonzero;stroke:none"/></g><g
            id="g408" transform="scale(1.03724)"><path id="path410" d="m 16281.9,9014.02 c -1.1,0 -2.1,0.2 -3.2,0.39 -7.8,1.73 -12.7,9.45 -11,17.26 l 2.3,10.31 c 1.8,7.81 9.5,12.73 17.3,10.99 7.8,-1.73 12.7,-9.44 11,-17.25 l -2.3,-10.32 c -1.5,-6.75 -7.5,-11.38 -14.1,-11.38" style="fill:#0e2549;fill-opacity:1;fill-rule:nonzero;stroke:none"/></g><g
            id="g412" transform="scale(1.04598)"><path id="path414" d="m 16282,8909.87 c -1,0 -2.1,0.09 -3.1,0.28 -7.8,1.73 -12.6,9.37 -10.9,17.12 l 2.3,10.22 c 1.7,7.75 9.3,12.63 17.1,11 7.7,-1.72 12.6,-9.46 10.9,-17.11 l -2.3,-10.33 c -1.5,-6.69 -7.5,-11.18 -14,-11.18" style="fill:#0e2549;fill-opacity:1;fill-rule:nonzero;stroke:none"/></g><g
            id="g416" transform="scale(1.05081)"><path id="path418" d="m 16283.8,8908.37 c -2.8,0 -5.6,0.85 -8.1,2.57 -20,13.7 -56.4,19.51 -68.8,20.65 -7.8,0.67 -13.6,7.61 -12.9,15.42 0.7,7.9 7.7,13.6 15.5,12.94 2.1,-0.19 52,-4.76 82.3,-25.51 6.6,-4.37 8.2,-13.32 3.8,-19.79 -2.8,-4.09 -7.3,-6.28 -11.8,-6.28" style="fill:#0e2549;fill-opacity:1;fill-rule:nonzero;stroke:none"/></g><g
            id="g420" transform="scale(1.04123)"><path id="path422" d="m 16275,8900.98 c -1.1,0 -2.4,0.2 -3.6,0.48 -48.9,12.78 -50.1,25.45 -50.6,31.6 -1,10.08 5.4,16.33 11.6,22.38 7.9,7.59 19.7,19.11 31.4,46.1 5.5,12.48 6.1,21.7 2,27.37 -8.7,12.29 -39.1,13.83 -52.4,12.68 -7.8,-0.68 -14.9,5.18 -15.6,13.06 -0.8,7.97 5.1,14.98 13,15.65 5.8,0.48 57.7,4.23 78.3,-24.49 10.5,-14.5 10.9,-33.32 1.1,-55.8 -12.7,-29.09 -26.5,-44.27 -35.1,-52.82 6.3,-2.59 15.2,-5.66 23.6,-7.87 7.7,-2.02 12.3,-9.9 10.3,-17.58 -1.7,-6.43 -7.5,-10.76 -14,-10.76" style="fill:#0e2549;fill-opacity:1;fill-rule:nonzero;stroke:none"/></g><g
            id="g424" transform="scale(1.04353)"><path id="path426" d="m 16287,7044.85 c -0.4,-0.09 -0.8,-0.09 -1.2,-0.09 -7.9,-0.19 -14.5,6.04 -14.7,13.99 l -6.9,277.61 c -0.2,7.87 6.1,14.48 14,14.67 7.9,0.19 14.5,-6.04 14.7,-13.99 l 6.9,-277.52 c 0.2,-7.57 -5.5,-13.9 -12.8,-14.67" style="fill:#0e2549;fill-opacity:1;fill-rule:nonzero;stroke:none"/></g><g
            id="g428" transform="scale(1.06263)"><path id="path430" d="m 15832.6,8987.17 c 0,0 335.6,-71.42 345.5,-224.82 0,0 36.3,13.08 48,8.09 15.2,-6.39 19,-13.73 19,-13.73 l 54.9,234.32 -401.5,62.77 -65.9,-66.63" style="fill:#0e2549;fill-opacity:1;fill-rule:nonzero;stroke:none"/></g><g
            id="g432" transform="scale(1.04175)"><path id="path434" d="m 16296.5,8864.76 c 3.5,-8.07 -31.5,-31.4 -54.1,-26.98 -56.7,11.04 -61.7,62.78 -51,52.7 4.2,-3.84 28.8,-24.77 57.5,-27.84 36.8,-3.84 43.6,11.33 47.6,2.12" style="fill:#0e2549;fill-opacity:1;fill-rule:nonzero;stroke:none"/></g><g
            id="g436" transform="scale(1.04668)"><path id="path438" d="m 15798.3,5921.57 -1246.5,2790.35 c -1.5,3.34 0,7.26 3.4,8.79 l 489.5,218.69 c 3.3,1.53 7.3,0 8.8,-3.35 L 16300,6145.71 15798.3,5921.57" style="fill:#d2ebfc;fill-opacity:1;fill-rule:nonzero;stroke:none"/></g><path
            id="path440"
            d="m 15246.9,9708.8 -5.6,-242.9 -8,-339.6 c -0.1,-5.2 5.2,-8.7 9.9,-6.6 l 504.8,225.5 c 4.7,2.1 5.6,8.4 1.7,11.8 l -443,378.5 c -23.2,19.8 -59.1,3.8 -59.8,-26.7"
            style="fill:#fff;fill-opacity:1;fill-rule:nonzero;stroke:none"/><g id="g442" transform="scale(1.0479)"><path id="path444" d="m 14884.9,8838.38 145.4,64.99 1126.3,-2521.25 -148,-68.61 z m 956.8,-2602.26 -1124.8,2527.16 141.8,63.36 1123.9,-2525.15 z m -157,-72.82 -1129.3,2527.83 135.4,60.51 1124.8,-2527.35 c 0,-0.1 0.1,-0.2 0.1,-0.2 z m -1125.7,2873 c 26.6,16.32 168,82.74 205.9,100.49 l 237.7,-203.07 -450.7,-201.36 z m 490,-104.78 c -2.6,5.82 -432.6,369.88 -432.6,369.88 -14.5,12.41 -34.3,15.27 -51.7,7.45 -17.5,-7.73 -28.5,-24.43 -29,-43.52 0,0 -16.7,-562.94 -13.8,-569.33 l 1245,-2787.11 5.9,-13.07 527.2,235.52 -1251,2800.18" style="fill:#0e2549;fill-opacity:1;fill-rule:nonzero;stroke:none"/></g><g
            id="g446" transform="scale(1.02423)"><path id="path448" d="m 16181.7,7467.64 c 29.1,55.45 118.3,91.87 118.3,91.87 l -121.5,66.1 c 0,0 -33.6,-54.87 -57.3,-53.8 -23.6,1.08 -161.4,0.68 -124.8,-17.57 25.6,-12.79 56.2,-22.85 72.2,-27.73 4,-1.27 4.4,-6.54 0.6,-8.5 -37.5,-18.94 -174,-129.36 -148.1,-151.62 49,-42.18 196.5,-20.79 260.6,101.25" style="fill:#fff;fill-opacity:1;fill-rule:nonzero;stroke:none"/></g><g
            id="g450" transform="scale(1.02637)"><path id="path452" d="m 16147.9,7452.06 h 0.1 z m -248.3,-91.69 c 18,-13.73 52.2,-18.12 88.1,-11.29 62.4,11.88 117.4,52.9 147.3,109.8 20.9,39.85 68.6,69.86 98.8,85.74 l -84.1,45.79 c -13.6,-19.49 -38.4,-50.37 -62.8,-49.01 -18.5,0.88 -60.3,0.29 -89.8,-1.95 16.6,-6.52 32.3,-11.69 42.3,-14.71 7.5,-2.24 12.7,-8.77 13.4,-16.56 0.7,-7.8 -3.4,-15.2 -10.5,-18.81 -37.2,-18.9 -137.2,-103.86 -142.7,-129 z m 55,-43.74 c -31.4,0 -58.5,7.99 -76.2,23.28 -6.3,5.46 -9.2,13.35 -8.2,22.32 4.6,37.02 94.2,110.68 139.7,141.37 -16.1,5.55 -35.8,13.06 -53.4,21.82 -15.7,7.79 -14.8,18.61 -13.7,22.9 3.3,12.67 14.5,18.71 72.2,21.53 31.1,1.46 63.1,1.27 73.3,0.78 0,0 0.1,0 0.2,0 7.8,0 28.9,22.5 43.8,46.77 l 7.2,11.79 160.5,-87.3 -28.5,-11.69 c -0.8,-0.3 -84.4,-35.08 -110.6,-84.96 v 0 c -34,-64.6 -96.7,-111.37 -167.7,-124.81 -13.3,-2.63 -26.3,-3.8 -38.6,-3.8" style="fill:#0e2549;fill-opacity:1;fill-rule:nonzero;stroke:none"/></g><g
            id="g454" transform="scale(1.03174)"><path id="path456" d="m 16170.9,7689.76 -161.6,-140.44 112.4,-113.12 178.3,157.31 -129.1,96.25" style="fill:#2e6b99;fill-opacity:1;fill-rule:nonzero;stroke:none"/></g><path
            id="path458"
            d="m 12552.8,15144.6 v -1468.3 l 457.2,457.2 h 1184.5 v 1011.1 z m -30,-1540.8 v 1570.8 h 1701.7 v -1071.1 h -1202.1 l -499.6,-499.7"
            style="fill:#0e2549;fill-opacity:1;fill-rule:nonzero;stroke:none"/><path id="path460"
                                                                                     d="m 13949.6,14895.3 h -497.1 c -8.3,0 -15,6.7 -15,15 0,8.3 6.7,15 15,15 h 497.1 c 8.3,0 15,-6.7 15,-15 0,-8.3 -6.7,-15 -15,-15"
                                                                                     style="fill:#0e2549;fill-opacity:1;fill-rule:nonzero;stroke:none"/><path
            id="path462"
            d="m 13949.6,14664.4 h -497.1 c -8.3,0 -15,6.7 -15,15 0,8.3 6.7,15 15,15 h 497.1 c 8.3,0 15,-6.7 15,-15 0,-8.3 -6.7,-15 -15,-15"
            style="fill:#0e2549;fill-opacity:1;fill-rule:nonzero;stroke:none"/><path id="path464"
                                                                                     d="m 13959.3,14433.4 h -497.1 c -8.3,0 -15,6.7 -15,15 0,8.3 6.7,15 15,15 h 497.1 c 8.3,0 15,-6.7 15,-15 0,-8.3 -6.7,-15 -15,-15"
                                                                                     style="fill:#0e2549;fill-opacity:1;fill-rule:nonzero;stroke:none"/><path
            id="path466"
            d="m 13001.9,14947.9 c -148.1,0 -268.6,-120.4 -268.6,-268.5 0,-148.1 120.5,-268.6 268.6,-268.6 148.1,0 268.6,120.5 268.6,268.6 0,148.1 -120.5,268.5 -268.6,268.5 z m 0,-567.1 c -164.6,0 -298.6,133.9 -298.6,298.6 0,164.6 134,298.5 298.6,298.5 164.6,0 298.6,-133.9 298.6,-298.5 0,-164.7 -134,-298.6 -298.6,-298.6"
            style="fill:#0e2549;fill-opacity:1;fill-rule:nonzero;stroke:none"/><path id="path468"
                                                                                     d="m 13121.5,14544.8 c -3.8,0 -7.7,1.4 -10.6,4.3 l -226.2,226.3 c -5.9,5.9 -5.9,15.4 0,21.2 5.8,5.9 15.3,5.9 21.2,0 l 226.2,-226.2 c 5.9,-5.9 5.9,-15.4 0,-21.3 -2.9,-2.9 -6.7,-4.3 -10.6,-4.3"
                                                                                     style="fill:#0e2549;fill-opacity:1;fill-rule:nonzero;stroke:none"/><path
            id="path470"
            d="m 12885.7,14548.1 c -3.9,0 -7.7,1.5 -10.6,4.4 -5.9,5.9 -5.9,15.4 0,21.2 l 227.4,227.5 c 5.9,5.9 15.4,5.9 21.2,0 5.9,-5.9 5.9,-15.4 0,-21.2 l -227.4,-227.5 c -3,-2.9 -6.8,-4.4 -10.6,-4.4"
            style="fill:#0e2549;fill-opacity:1;fill-rule:nonzero;stroke:none"/></g></g></svg>